<?xml version="1.0" encoding="UTF-8"?>
<svg version="1.1" xmlns="http://www.w3.org/2000/svg" width="800" height="640">
<path d="M0 0 C264 0 528 0 800 0 C800 211.2 800 422.4 800 640 C536 640 272 640 0 640 C0 428.8 0 217.6 0 0 Z " fill="#F4F4F4" transform="translate(0,0)"/>
<path d="M0 0 C0.84175278 -0.00719559 1.68350555 -0.01439117 2.55076599 -0.02180481 C25.78239653 -0.17518554 46.51416818 1.13448992 68.92578125 7.515625 C69.57395813 7.69995087 70.22213501 7.88427673 70.88995361 8.07418823 C79.14504793 10.45326694 86.96431132 13.31529707 94.77172852 16.86010742 C98.15641885 18.27332803 101.44816027 19.26145785 104.98828125 20.203125 C104.98828125 20.863125 104.98828125 21.523125 104.98828125 22.203125 C105.62765625 22.285625 106.26703125 22.368125 106.92578125 22.453125 C111.20428204 23.50092111 114.99911696 25.36197225 118.98828125 27.203125 C120.46679184 27.85045888 121.9459525 28.49631018 123.42578125 29.140625 C127.56955967 30.97748315 131.60384932 33.0027688 135.6484375 35.046875 C138.71094864 36.5602361 141.83717856 37.88539115 144.98828125 39.203125 C147.9926814 40.52660674 150.99077819 41.86410436 153.98828125 43.203125 C150.50458465 44.41691982 148.52480214 43.98311647 145.0859375 42.76171875 C144.12341064 42.42817383 143.16088379 42.09462891 142.16918945 41.75097656 C141.14011475 41.38456055 140.11104004 41.01814453 139.05078125 40.640625 C129.30744115 37.27510587 119.52918354 34.27060473 109.6015625 31.50390625 C105.86889122 30.46340621 102.17690473 29.32912884 98.48828125 28.140625 C60.72738473 16.4734762 18.39581209 11.3854232 -20.01171875 23.203125 C-21.29286139 23.57849163 -22.57412025 23.9534617 -23.85546875 24.328125 C-62.0168778 35.67658717 -98.31700288 58.85624415 -118.01171875 94.203125 C-119.87934961 97.80596302 -121.51501601 101.43258539 -123.01171875 105.203125 C-123.3675 106.05777344 -123.72328125 106.91242188 -124.08984375 107.79296875 C-128.91495293 120.05378723 -130.27776253 131.75606009 -130.32421875 144.828125 C-130.33243652 146.50745117 -130.33243652 146.50745117 -130.34082031 148.22070312 C-130.13733032 172.17638715 -123.7723746 196.14527474 -106.68359375 213.578125 C-95.94857011 223.50984755 -84.67928717 227.14116512 -70.19921875 226.609375 C-58.71826296 225.77892612 -48.41288287 218.82349221 -40.60546875 210.69921875 C-30.69069843 199.03578175 -24.01367205 185.50195224 -17.01953125 172 C-1.98834694 143.00651561 15.77290901 116.1349414 48.30712891 105.44091797 C67.22742942 99.64072897 87.72666095 97.13515791 106.98828125 103.203125 C107.64828125 103.863125 108.30828125 104.523125 108.98828125 105.203125 C108.12775146 105.18217773 107.26722168 105.16123047 106.38061523 105.13964844 C84.30976367 104.31547324 84.30976367 104.31547324 62.98828125 109.203125 C61.6631782 109.63680117 60.33624707 110.06492003 59.0078125 110.48828125 C35.17976857 118.36539024 18.549312 136.5031493 6.98828125 158.203125 C6.57707031 158.9559375 6.16585937 159.70875 5.7421875 160.484375 C3.36364747 165.00082454 1.67919768 169.6954295 -0.02734375 174.5 C-2.78146789 182.06291231 -6.46080237 189.1933923 -10.10644531 196.35620117 C-12.2453424 200.57828405 -14.19038094 204.83418385 -16.01171875 209.203125 C-16.67171875 209.203125 -17.33171875 209.203125 -18.01171875 209.203125 C-18.27855469 209.94175781 -18.54539062 210.68039062 -18.8203125 211.44140625 C-20.77009763 215.96107211 -23.89391391 219.4317803 -27.01171875 223.203125 C-27.98625 224.43482422 -27.98625 224.43482422 -28.98046875 225.69140625 C-38.8651051 237.54928157 -53.56690953 246.27252385 -69.01171875 248.203125 C-87.39461075 249.52613617 -103.94726418 245.55417976 -118.27734375 233.5546875 C-127.45737395 225.49583892 -135.06393619 216.88952553 -141.01171875 206.203125 C-141.67558594 205.10613281 -142.33945313 204.00914062 -143.0234375 202.87890625 C-145.10733373 199.22888866 -146.39348536 195.53612808 -147.57421875 191.515625 C-147.78473877 190.81937012 -147.99525879 190.12311523 -148.2121582 189.40576172 C-150.00895899 183.38789414 -151.64827023 177.33470274 -153.01171875 171.203125 C-153.1823584 170.54328613 -153.35299805 169.88344727 -153.52880859 169.20361328 C-155.26734905 161.83374713 -155.316467 154.53382533 -155.27246094 147.00878906 C-155.26177186 144.83890622 -155.27239238 142.66985729 -155.28515625 140.5 C-155.29592345 129.86041884 -154.50681085 119.65484367 -150.84375 109.5859375 C-150.23794593 107.85100567 -149.7027754 106.09092892 -149.2109375 104.3203125 C-143.98316941 85.57404277 -133.56553975 68.09738734 -120.01171875 54.203125 C-119.04647923 53.17615309 -118.08165821 52.14878772 -117.1171875 51.12109375 C-87.50709203 20.05605953 -43.06043434 0.24105246 0 0 Z " fill="#EF5C28" transform="translate(360.01171875,195.796875)"/>
<path d="M0 0 C0.66 0 1.32 0 2 0 C1.98839844 0.75925781 1.97679687 1.51851562 1.96484375 2.30078125 C1.95582031 3.29464844 1.94679688 4.28851563 1.9375 5.3125 C1.92589844 6.29863281 1.91429687 7.28476562 1.90234375 8.30078125 C1.87670138 11.09963849 1.87670138 11.09963849 3 14 C17.11347375 21.77530799 36.09975192 16.60704187 51.0625 13.75 C51.85360168 13.59992493 52.64470337 13.44984985 53.45977783 13.29522705 C63.18938753 11.42404159 72.56489783 9.05668884 82 6 C104.08809497 -0.43013757 131.12519057 -5.07270532 152.296875 6.2890625 C158.11164015 9.96950634 163.37757396 15.00704099 165.5546875 21.70703125 C168.000348 34.3000375 165.66093189 47.17598568 159 58 C158.47016584 59.30074287 157.97092929 60.61429108 157.5 61.9375 C156.27053732 65.38792752 154.75791549 68.57304049 153.09375 71.83203125 C148.64506493 80.64996059 145.12134212 89.75691377 141.72949219 99.01708984 C140.50298674 102.35098449 139.25014571 105.6749083 138 109 C137.67 109 137.34 109 137 109 C135.78780202 88.15019481 140.63751788 68.18149527 146.76391602 48.35913086 C148.9041538 41.24893696 150.18338972 34.91997844 148 27.6875 C144.32457931 22.74865345 138.96301729 20.8919043 133 20 C113.64206969 18.93367333 95.17980981 22.4859257 76.41235352 26.93017578 C64.88891393 29.62830501 53.80453954 30.21028594 42.00610352 30.24023438 C39.70226891 30.2499378 37.39932963 30.28105453 35.09570312 30.3125 C22.5933261 30.40282139 9.70991385 29.87465245 0 21 C-2.51453603 18.2186697 -3.9211771 15.57917611 -4.11328125 11.73046875 C-3.7763002 7.21492273 -2.90445659 3.60152617 0 0 Z " fill="#EF5B27" transform="translate(429,251)"/>
<path d="M0 0 C1.485 0.495 1.485 0.495 3 1 C2.34773438 1.49628906 1.69546875 1.99257813 1.0234375 2.50390625 C-9.36180595 10.576212 -17.22948115 18.64669325 -19.3125 32.0625 C-19.55934684 34.03953938 -19.79477575 36.01820761 -20 38 C-19.11699219 37.39671875 -18.23398437 36.7934375 -17.32421875 36.171875 C-10.1140493 31.33377755 -3.3755167 27.50679801 5 25 C6.64548828 24.46246094 6.64548828 24.46246094 8.32421875 23.9140625 C29.30908627 17.1663628 55.57770891 17.97956668 77 23 C77.91426758 23.20931152 78.82853516 23.41862305 79.77050781 23.63427734 C91.94581149 26.47598598 103.57145641 29.9117673 115 35 C115.64485352 35.27602051 116.28970703 35.55204102 116.95410156 35.83642578 C123.79193016 38.79513152 130.3896291 42.19342855 137 45.625 C138.71509766 46.50285156 138.71509766 46.50285156 140.46484375 47.3984375 C141.54894531 47.96046875 142.63304687 48.5225 143.75 49.1015625 C144.73484375 49.61025879 145.7196875 50.11895508 146.734375 50.64306641 C149 52 149 52 150 54 C143.55264925 53.41455954 137.84330531 51.82482167 131.6875 49.875 C117.37841202 45.49642597 102.75535604 42.74289995 88.06311035 40.00177002 C85.28994932 39.47845607 82.68248742 38.89416247 80 38 C68.14764681 36.29793251 56.24172829 35.77630402 44.27960205 35.70144653 C42.8661092 35.69229713 41.45263751 35.67836084 40.03924561 35.65914917 C18.85526957 35.40459322 -3.27257362 40.23759481 -19.22265625 55.06640625 C-20.40612255 56.26931347 -21.56830988 57.49403688 -22.6953125 58.75 C-24 60 -24 60 -26 60 C-26.33 60.99 -26.66 61.98 -27 63 C-27.66 63 -28.32 63 -29 63 C-32.56546672 50.6349614 -33.28767438 35.55994793 -27 24 C-20.95716284 13.13004441 -13.11204229 6.40636401 -2 1 C-1.34 0.67 -0.68 0.34 0 0 Z " fill="#EF5C29" transform="translate(413,318)"/>
<path d="M0 0 C-0.49628906 0.4125 -0.99257813 0.825 -1.50390625 1.25 C-6.49373329 5.4918264 -10.82603775 9.9618253 -15 15 C-15.62648438 15.72703125 -16.25296875 16.4540625 -16.8984375 17.203125 C-22.8315467 24.2853344 -27.48715366 31.96921436 -32 40 C-32.85464844 41.51787109 -32.85464844 41.51787109 -33.7265625 43.06640625 C-44.64185341 63.63753142 -45.29922158 84.59470597 -45.125 107.375 C-45.11494876 109.67187109 -45.10582671 111.96874645 -45.09765625 114.265625 C-45.07581595 119.84384438 -45.04250879 125.42190181 -45 131 C-54.81455911 121.74855739 -57.7885017 103.4052729 -58.3828125 90.51171875 C-59.09431818 63.1591328 -52.27693843 40.79400371 -33.40625 20.4765625 C-25.64694926 12.49052895 -17.6588662 6.45765204 -8 1 C-6.94425781 0.36384766 -6.94425781 0.36384766 -5.8671875 -0.28515625 C-3.53671432 -1.17736669 -2.31181144 -0.82564694 0 0 Z " fill="#ED5E2B" transform="translate(332,251)"/>
<path d="M0 0 C0.99 0.99 0.99 0.99 2 2 C0.70920532 1.9685791 0.70920532 1.9685791 -0.60766602 1.93652344 C-22.67851758 1.11234824 -22.67851758 1.11234824 -44 6 C-45.32510305 6.43367617 -46.65203418 6.86179503 -47.98046875 7.28515625 C-64.57626615 12.77141879 -78.03642873 23.43979343 -89 37 C-89.66 36.34 -90.32 35.68 -91 35 C-90.625 31.375 -90.625 31.375 -90 28 C-94.83256305 28.41421969 -96.82679218 30.46413986 -100 34 C-100.66 33.67 -101.32 33.34 -102 33 C-78.21090589 4.09073663 -36.75627013 -11.57928741 0 0 Z " fill="#EB602D" transform="translate(467,299)"/>
<path d="M0 0 C3.67113411 0.98408728 7.33632223 1.98852662 11 3 C11.84820312 3.22816406 12.69640625 3.45632812 13.5703125 3.69140625 C19.13608138 5.25733801 24.21119475 7.39469696 29.4375 9.859375 C32.58559833 11.26066267 35.65809697 12.18309037 39 13 C39 13.66 39 14.32 39 15 C39.639375 15.0825 40.27875 15.165 40.9375 15.25 C45.21600079 16.29779611 49.01083571 18.15884725 53 20 C54.47851059 20.64733388 55.95767125 21.29318518 57.4375 21.9375 C61.58127842 23.77435815 65.61556807 25.7996438 69.66015625 27.84375 C72.72266739 29.3571111 75.84889731 30.68226615 79 32 C82.00440015 33.32348174 85.00249694 34.66097936 88 36 C84.5163034 37.21379482 82.53652089 36.77999147 79.09765625 35.55859375 C78.13512939 35.22504883 77.17260254 34.89150391 76.1809082 34.54785156 C75.1518335 34.18143555 74.12275879 33.81501953 73.0625 33.4375 C63.3191599 30.07198087 53.54090229 27.06747973 43.61328125 24.30078125 C39.88060997 23.26028121 36.18862348 22.12600384 32.5 20.9375 C15.31975564 15.62924501 -2.23837868 12.60621674 -20 10 C-20 9.67 -20 9.34 -20 9 C-14.92523206 7.73694665 -10.27203646 6.72963916 -5 7 C-5 7.66 -5 8.32 -5 9 C-1.37 9 2.26 9 6 9 C5.60036959 3.97214377 5.60036959 3.97214377 2.4375 2.25 C1.633125 1.8375 0.82875 1.425 0 1 C0 0.67 0 0.34 0 0 Z " fill="#E96334" transform="translate(426,203)"/>
<path d="M0 0 C0.85540752 3.18483906 1.10600229 5.94382604 1.0625 9.25 C1.05347656 10.14203125 1.04445313 11.0340625 1.03515625 11.953125 C1.02355469 12.62859375 1.01195312 13.3040625 1 14 C1.66 14 2.32 14 3 14 C3.33 15.32 3.66 16.64 4 18 C4.66 18 5.32 18 6 18 C5.94199219 17.39671875 5.88398437 16.7934375 5.82421875 16.171875 C5.68464247 13.69938088 5.64944078 11.45391455 6 9 C8.375 6.4375 8.375 6.4375 11 5 C11.66 5 12.32 5 13 5 C11.74725726 9.17580914 10.10043652 12.89868342 8.12890625 16.76171875 C3.66906863 25.60423417 0.13065793 34.73148044 -3.27050781 44.01708984 C-4.49701326 47.35098449 -5.74985429 50.6749083 -7 54 C-7.33 54 -7.66 54 -8 54 C-9.07141705 35.57162676 -5.63242485 17.52636328 0 0 Z " fill="#E66A3A" transform="translate(574,306)"/>
<path d="M0 0 C7.83270273 2.31496193 14.78568404 5.76307172 22 9.5625 C23.14339844 10.15224609 24.28679688 10.74199219 25.46484375 11.34960938 C33.87140656 15.74281313 33.87140656 15.74281313 35 18 C28.34397279 17.40346926 22.36716463 15.72956192 16 13.75 C3.8096479 10.06217041 -8.49726215 7.38697768 -21 5 C-21 4.67 -21 4.34 -21 4 C-18.43795456 3.66280953 -15.87545682 3.33012847 -13.3125 3 C-12.59126953 2.90460938 -11.87003906 2.80921875 -11.12695312 2.7109375 C-7.39007129 2.23316265 -3.77708469 1.88080206 0 2 C0 1.34 0 0.68 0 0 Z " fill="#EF5C28" transform="translate(528,354)"/>
<path d="M0 0 C0.95100586 0.00273926 1.90201172 0.00547852 2.88183594 0.00830078 C23.30797602 0.30797602 23.30797602 0.30797602 28.3125 5.3125 C27.02170532 5.2810791 27.02170532 5.2810791 25.70483398 5.24902344 C2.18600137 4.50580719 2.18600137 4.50580719 -20.3671875 10.4453125 C-22.6875 11.3125 -22.6875 11.3125 -25.6875 11.3125 C-26.0175 9.9925 -26.3475 8.6725 -26.6875 7.3125 C-25.0375 7.3125 -23.3875 7.3125 -21.6875 7.3125 C-21.6875 6.6525 -21.6875 5.9925 -21.6875 5.3125 C-22.65171875 5.61285156 -23.6159375 5.91320312 -24.609375 6.22265625 C-25.87265625 6.60292969 -27.1359375 6.98320312 -28.4375 7.375 C-29.69046875 7.75785156 -30.9434375 8.14070313 -32.234375 8.53515625 C-35.53272223 9.27765749 -36.62056589 9.25549411 -39.6875 8.3125 C-36.73209945 7.34496357 -33.77269484 6.39025732 -30.8125 5.4375 C-29.99007813 5.16808594 -29.16765625 4.89867187 -28.3203125 4.62109375 C-18.84654233 1.58652674 -9.96362816 -0.05848448 0 0 Z " fill="#E8673B" transform="translate(440.6875,295.6875)"/>
<path d="M0 0 C0.94875 0.04125 1.8975 0.0825 2.875 0.125 C2.875 4.125 2.875 4.125 1.5 5.875 C-0.125 7.125 -0.125 7.125 -2.125 7.125 C-1.795 7.785 -1.465 8.445 -1.125 9.125 C0.195 8.795 1.515 8.465 2.875 8.125 C3.205 6.805 3.535 5.485 3.875 4.125 C4.535 4.125 5.195 4.125 5.875 4.125 C5.5625 6.5 5.5625 6.5 4.875 9.125 C1.64708445 11.2769437 0.59099191 11.32586443 -3.125 11.125 C-3.269375 12.259375 -3.41375 13.39375 -3.5625 14.5625 C-4.125 18.125 -4.125 18.125 -5.125 19.125 C-9.34071713 19.41243526 -12.30509548 18.92260213 -16.125 17.125 C-15.279375 18.053125 -14.43375 18.98125 -13.5625 19.9375 C-12.12109375 21.51953125 -12.12109375 21.51953125 -11.125 23.125 C-11.455 24.115 -11.785 25.105 -12.125 26.125 C-15.57230584 26.51897781 -16.88113114 26.2894697 -19.8125 24.3125 C-22.125 22.125 -22.125 22.125 -24.125 19.125 C-23.795 18.465 -23.465 17.805 -23.125 17.125 C-22.465 17.455 -21.805 17.785 -21.125 18.125 C-18.21697539 15.90571806 -16.17187238 14.19530857 -14.125 11.125 C-12.3125 9.375 -12.3125 9.375 -10.125 8.125 C-7.375 8.4375 -7.375 8.4375 -5.125 9.125 C-5.16625 8.01125 -5.2075 6.8975 -5.25 5.75 C-5.09146151 1.15238393 -4.65510388 0.18620416 0 0 Z " fill="#EAEAEA" transform="translate(302.125,366.875)"/>
<path d="M0 0 C2 2 2 2 2.125 4.625 C2.08375 5.40875 2.0425 6.1925 2 7 C2.99 7 3.98 7 5 7 C5 5.35 5 3.7 5 2 C5.66 2 6.32 2 7 2 C8 9.75 8 9.75 8 12 C8.33 12 8.66 12 9 12 C9.125 19.625 9.125 19.625 8 23 C7.85110253 24.84466442 7.7520899 26.69357275 7.68359375 28.54296875 C7.64169922 29.61611328 7.59980469 30.68925781 7.55664062 31.79492188 C7.49766602 33.47424805 7.49766602 33.47424805 7.4375 35.1875 C7.39431641 36.31865234 7.35113281 37.44980469 7.30664062 38.61523438 C7.20050901 41.41003354 7.09845615 44.20492162 7 47 C6.67 47 6.34 47 6 47 C5.34 42.71 4.68 38.42 4 34 C3.67 34 3.34 34 3 34 C2.67 30.37 2.34 26.74 2 23 C1.01 23 0.02 23 -1 23 C-1.02887512 19.35418313 -1.04675585 15.70839537 -1.0625 12.0625 C-1.07087891 11.02158203 -1.07925781 9.98066406 -1.08789062 8.90820312 C-1.09272461 7.42416992 -1.09272461 7.42416992 -1.09765625 5.91015625 C-1.10289307 4.99371338 -1.10812988 4.07727051 -1.11352539 3.13305664 C-1 1 -1 1 0 0 Z " fill="#F25924" transform="translate(276,321)"/>
<path d="M0 0 C0.99 0.33 1.98 0.66 3 1 C2.34773438 1.49628906 1.69546875 1.99257813 1.0234375 2.50390625 C-7.68723337 9.27458995 -16.9531891 17.52479421 -19 29 C-19.06624507 30.74886981 -19.08552595 32.50002748 -19.0625 34.25 C-19.04896484 35.58804688 -19.04896484 35.58804688 -19.03515625 36.953125 C-19.02355469 37.62859375 -19.01195312 38.3040625 -19 39 C-19.66 39 -20.32 39 -21 39 C-21.33 34.71 -21.66 30.42 -22 26 C-22.66 26 -23.32 26 -24 26 C-24 27.65 -24 29.3 -24 31 C-24.66 31 -25.32 31 -26 31 C-27.06654059 27.41947087 -27.57622001 25.27542769 -26.01171875 21.8125 C-19.7614894 12.10863988 -12.32249754 6.02222523 -2 1 C-1.34 0.67 -0.68 0.34 0 0 Z " fill="#E86535" transform="translate(413,318)"/>
<path d="M0 0 C0.94875 0.04125 1.8975 0.0825 2.875 0.125 C2.875 4.125 2.875 4.125 1.5 5.875 C-0.125 7.125 -0.125 7.125 -2.125 7.125 C-1.795 7.785 -1.465 8.445 -1.125 9.125 C0.195 8.795 1.515 8.465 2.875 8.125 C3.205 6.805 3.535 5.485 3.875 4.125 C4.535 4.125 5.195 4.125 5.875 4.125 C5.5625 6.5 5.5625 6.5 4.875 9.125 C1.64708445 11.2769437 0.59099191 11.32586443 -3.125 11.125 C-3.269375 12.259375 -3.41375 13.39375 -3.5625 14.5625 C-4.125 18.125 -4.125 18.125 -5.125 19.125 C-10.34348739 19.57878151 -10.34348739 19.57878151 -13.0625 18 C-14.125 16.125 -14.125 16.125 -14 13.0625 C-13.125 10.125 -13.125 10.125 -10.125 8.125 C-7.4375 8.5 -7.4375 8.5 -5.125 9.125 C-5.16625 8.01125 -5.2075 6.8975 -5.25 5.75 C-5.09146151 1.15238393 -4.65510388 0.18620416 0 0 Z " fill="#E9E9E9" transform="translate(622.125,366.875)"/>
<path d="M0 0 C0.94875 0.04125 1.8975 0.0825 2.875 0.125 C2.875 4.125 2.875 4.125 1.5 5.875 C-0.125 7.125 -0.125 7.125 -2.125 7.125 C-1.795 7.785 -1.465 8.445 -1.125 9.125 C0.195 8.795 1.515 8.465 2.875 8.125 C3.205 6.805 3.535 5.485 3.875 4.125 C4.535 4.125 5.195 4.125 5.875 4.125 C5.5625 6.5 5.5625 6.5 4.875 9.125 C1.64708445 11.2769437 0.59099191 11.32586443 -3.125 11.125 C-3.269375 12.259375 -3.41375 13.39375 -3.5625 14.5625 C-4.125 18.125 -4.125 18.125 -5.125 19.125 C-10.34348739 19.57878151 -10.34348739 19.57878151 -13.0625 18 C-14.125 16.125 -14.125 16.125 -14 13.0625 C-13.125 10.125 -13.125 10.125 -10.125 8.125 C-7.4375 8.5 -7.4375 8.5 -5.125 9.125 C-5.16625 8.01125 -5.2075 6.8975 -5.25 5.75 C-5.09146151 1.15238393 -4.65510388 0.18620416 0 0 Z " fill="#E9E9E9" transform="translate(622.125,46.875)"/>
<path d="M0 0 C0.94875 0.04125 1.8975 0.0825 2.875 0.125 C2.875 4.125 2.875 4.125 1.5 5.875 C-0.125 7.125 -0.125 7.125 -2.125 7.125 C-1.795 7.785 -1.465 8.445 -1.125 9.125 C0.195 8.795 1.515 8.465 2.875 8.125 C3.205 6.805 3.535 5.485 3.875 4.125 C4.535 4.125 5.195 4.125 5.875 4.125 C5.5625 6.5 5.5625 6.5 4.875 9.125 C1.64708445 11.2769437 0.59099191 11.32586443 -3.125 11.125 C-3.269375 12.259375 -3.41375 13.39375 -3.5625 14.5625 C-4.125 18.125 -4.125 18.125 -5.125 19.125 C-10.34348739 19.57878151 -10.34348739 19.57878151 -13.0625 18 C-14.125 16.125 -14.125 16.125 -14 13.0625 C-13.125 10.125 -13.125 10.125 -10.125 8.125 C-7.4375 8.5 -7.4375 8.5 -5.125 9.125 C-5.16625 8.01125 -5.2075 6.8975 -5.25 5.75 C-5.09146151 1.15238393 -4.65510388 0.18620416 0 0 Z " fill="#E9E9E9" transform="translate(302.125,46.875)"/>
<path d="M0 0 C2.3125 1.625 2.3125 1.625 4 4 C4.50299316 8.10777749 4.32749345 9.50875983 2 13 C-1.3125 14 -1.3125 14 -5 14 C-8 11.9375 -8 11.9375 -10 9 C-10.07189646 5.40517716 -9.71216032 3.76302891 -7.25 1.125 C-4.50272993 -0.24863504 -3.03212094 -0.53062116 0 0 Z " fill="#ECECEC" transform="translate(703,465)"/>
<path d="M0 0 C2.3125 1.625 2.3125 1.625 4 4 C4.50299316 8.10777749 4.32749345 9.50875983 2 13 C-1.3125 14 -1.3125 14 -5 14 C-8 11.9375 -8 11.9375 -10 9 C-10.07189646 5.40517716 -9.71216032 3.76302891 -7.25 1.125 C-4.50272993 -0.24863504 -3.03212094 -0.53062116 0 0 Z " fill="#ECECEC" transform="translate(383,465)"/>
<path d="M0 0 C2.3125 1.625 2.3125 1.625 4 4 C4.50299316 8.10777749 4.32749345 9.50875983 2 13 C-1.3125 14 -1.3125 14 -5 14 C-8 11.9375 -8 11.9375 -10 9 C-10.07189646 5.40517716 -9.71216032 3.76302891 -7.25 1.125 C-4.50272993 -0.24863504 -3.03212094 -0.53062116 0 0 Z " fill="#ECECEC" transform="translate(63,465)"/>
<path d="M0 0 C2.3125 1.625 2.3125 1.625 4 4 C4.50299316 8.10777749 4.32749345 9.50875983 2 13 C-1.3125 14 -1.3125 14 -5 14 C-8 11.9375 -8 11.9375 -10 9 C-10.07189646 5.40517716 -9.71216032 3.76302891 -7.25 1.125 C-4.50272993 -0.24863504 -3.03212094 -0.53062116 0 0 Z " fill="#ECECEC" transform="translate(703,145)"/>
<path d="M0 0 C2.3125 1.625 2.3125 1.625 4 4 C4.50299316 8.10777749 4.32749345 9.50875983 2 13 C-1.3125 14 -1.3125 14 -5 14 C-8 11.9375 -8 11.9375 -10 9 C-10.07189646 5.40517716 -9.71216032 3.76302891 -7.25 1.125 C-4.50272993 -0.24863504 -3.03212094 -0.53062116 0 0 Z " fill="#ECECEC" transform="translate(383,145)"/>
<path d="M0 0 C2.3125 1.625 2.3125 1.625 4 4 C4.50299316 8.10777749 4.32749345 9.50875983 2 13 C-1.3125 14 -1.3125 14 -5 14 C-8 11.9375 -8 11.9375 -10 9 C-10.07189646 5.40517716 -9.71216032 3.76302891 -7.25 1.125 C-4.50272993 -0.24863504 -3.03212094 -0.53062116 0 0 Z " fill="#ECECEC" transform="translate(63,145)"/>
<path d="M0 0 C0.33 0 0.66 0 1 0 C1.33 14.52 1.66 29.04 2 44 C-1.12615269 40.87384731 -2.53305151 37.98701662 -4.1875 34 C-4.46013672 33.3709375 -4.73277344 32.741875 -5.01367188 32.09375 C-6.22496537 29.2279328 -7 27.14296477 -7 24 C-6.34 24 -5.68 24 -5 24 C-4.34 25.98 -3.68 27.96 -3 30 C-2.98018066 29.30438965 -2.96036133 28.6087793 -2.93994141 27.89208984 C-2.84427876 24.71936679 -2.73476696 21.54726513 -2.625 18.375 C-2.5940625 17.28058594 -2.563125 16.18617188 -2.53125 15.05859375 C-2.33680788 9.71143541 -2.15326382 4.98926984 0 0 Z " fill="#E95C26" transform="translate(285,338)"/>
<path d="M0 0 C5.84300519 0.58893257 11.19796948 1.73777893 16.8125 3.4375 C17.56208984 3.65470703 18.31167969 3.87191406 19.08398438 4.09570312 C22.43406674 5.09264453 25.07248921 6.04832614 28 8 C25.36 8.33 22.72 8.66 20 9 C20 8.34 20 7.68 20 7 C15.545 7.495 15.545 7.495 11 8 C12.299375 8.12375 13.59875 8.2475 14.9375 8.375 C17.15234375 8.5859375 17.15234375 8.5859375 19 9 C19.33 9.66 19.66 10.32 20 11 C17.69 11 15.38 11 13 11 C13.7763932 14.0745356 13.7763932 14.0745356 16 16 C14.39504433 15.88557539 12.79101881 15.75805306 11.1875 15.625 C9.84751953 15.52058594 9.84751953 15.52058594 8.48046875 15.4140625 C6 15 6 15 3 13 C4.32 12.01 5.64 11.02 7 10 C6.67 9.01 6.34 8.02 6 7 C6.66 7 7.32 7 8 7 C8 6.34 8 5.68 8 5 C7.34 5 6.68 5 6 5 C6 4.01 6 3.02 6 2 C4.35 2 2.7 2 1 2 C0.67 1.34 0.34 0.68 0 0 Z " fill="#EB632F" transform="translate(490,342)"/>
<path d="M0 0 C0.33 0 0.66 0 1 0 C1 3.3 1 6.6 1 10 C2.32 10 3.64 10 5 10 C5.33 8.68 5.66 7.36 6 6 C6.66 6 7.32 6 8 6 C7.04550013 10.04743585 5.60339762 13.8701077 4.125 17.75 C3.86847656 18.42804688 3.61195313 19.10609375 3.34765625 19.8046875 C2.83054509 21.17152404 2.3126447 22.53806226 1.79394531 23.90429688 C0.52031783 27.26617213 -0.73935181 30.63323896 -2 34 C-2.33 34 -2.66 34 -3 34 C-3.36743024 22.2422322 -2.62648176 11.47522388 0 0 Z " fill="#E56B3E" transform="translate(569,326)"/>
<path d="M0 0 C0 0.66 0 1.32 0 2 C-1.65 2 -3.3 2 -5 2 C-4.67 3.32 -4.34 4.64 -4 6 C-5.72718516 6.96189997 -7.45684058 7.91936508 -9.1875 8.875 C-10.15042969 9.40867187 -11.11335938 9.94234375 -12.10546875 10.4921875 C-17.35387548 13.22617535 -17.35387548 13.22617535 -20 14 C-23 12 -23 12 -23.5 9.5625 C-23 7 -23 7 -20.875 5.4765625 C-17.79526308 3.89484979 -14.81067935 2.82194779 -11.5 1.8125 C-10.3965625 1.46832031 -9.293125 1.12414062 -8.15625 0.76953125 C-5.28010201 0.0682922 -2.93975047 -0.15905366 0 0 Z " fill="#ED5C26" transform="translate(419,301)"/>
<path d="M0 0 C0.66 0 1.32 0 2 0 C1.98839844 0.75925781 1.97679687 1.51851562 1.96484375 2.30078125 C1.95582031 3.29464844 1.94679688 4.28851563 1.9375 5.3125 C1.92589844 6.29863281 1.91429687 7.28476562 1.90234375 8.30078125 C1.87670138 11.09963849 1.87670138 11.09963849 3 14 C8.70655893 17.22478028 13.97652445 17.52469644 20.4375 17.6875 C21.82098633 17.73874023 21.82098633 17.73874023 23.23242188 17.79101562 C25.48815951 17.87282994 27.74354119 17.94219122 30 18 C30 18.33 30 18.66 30 19 C26.64600151 19.0878954 23.2923036 19.14068879 19.9375 19.1875 C18.99455078 19.21263672 18.05160156 19.23777344 17.08007812 19.26367188 C11.23357264 19.32478517 7.18712456 18.74104641 2 16 C2 17.65 2 19.3 2 21 C3.32 20.67 4.64 20.34 6 20 C6.33 21.65 6.66 23.3 7 25 C1.87268706 23.32881097 -0.09006858 20.98876584 -2.89453125 16.51171875 C-4.68195259 12.45054588 -4.2894923 9.16667198 -3 5 C-1.5625 1.9375 -1.5625 1.9375 0 0 Z " fill="#E2734B" transform="translate(429,251)"/>
<path d="M0 0 C2.9375 0.9375 2.9375 0.9375 4.1875 2.8125 C4.435 3.51375 4.6825 4.215 4.9375 4.9375 C5.9275 6.4225 5.9275 6.4225 6.9375 7.9375 C6.6133631 11.25990324 6.32973697 12.54526303 3.9375 14.9375 C1.8125 14.5625 1.8125 14.5625 -0.0625 13.9375 C1.2575 13.2775 2.5775 12.6175 3.9375 11.9375 C3.9375 10.9475 3.9375 9.9575 3.9375 8.9375 C2.9475 10.4225 2.9475 10.4225 1.9375 11.9375 C-1.21978506 12.34055767 -3.21480863 12.42970789 -6 10.8125 C-7.0625 8.9375 -7.0625 8.9375 -6.9375 5.9375 C-5.62826658 1.44869971 -4.85607989 -0.09910367 0 0 Z " fill="#E7E6E6" transform="translate(449.0625,220.0625)"/>
<path d="M0 0 C4.22435427 1.56457565 6.49058647 4.343426 9 8 C8.92087652 11.48143326 8.46645256 12.53354744 6 15 C3.875 14.625 3.875 14.625 2 14 C3.32 13.34 4.64 12.68 6 12 C6 11.01 6 10.02 6 9 C5.01 10.485 5.01 10.485 4 12 C0.84271494 12.40305767 -1.15230863 12.49220789 -3.9375 10.875 C-5.52513015 8.07329973 -4.74070176 6.03014356 -4 3 C-2.68 2.67 -1.36 2.34 0 2 C0 1.34 0 0.68 0 0 Z " fill="#E7E7E7" transform="translate(767,540)"/>
<path d="M0 0 C4.22435427 1.56457565 6.49058647 4.343426 9 8 C8.92087652 11.48143326 8.46645256 12.53354744 6 15 C3.875 14.625 3.875 14.625 2 14 C3.32 13.34 4.64 12.68 6 12 C6 11.01 6 10.02 6 9 C5.01 10.485 5.01 10.485 4 12 C0.84271494 12.40305767 -1.15230863 12.49220789 -3.9375 10.875 C-5.52513015 8.07329973 -4.74070176 6.03014356 -4 3 C-2.68 2.67 -1.36 2.34 0 2 C0 1.34 0 0.68 0 0 Z " fill="#E7E7E7" transform="translate(447,540)"/>
<path d="M0 0 C4.22435427 1.56457565 6.49058647 4.343426 9 8 C8.92087652 11.48143326 8.46645256 12.53354744 6 15 C3.875 14.625 3.875 14.625 2 14 C3.32 13.34 4.64 12.68 6 12 C6 11.01 6 10.02 6 9 C5.01 10.485 5.01 10.485 4 12 C0.84271494 12.40305767 -1.15230863 12.49220789 -3.9375 10.875 C-5.52513015 8.07329973 -4.74070176 6.03014356 -4 3 C-2.68 2.67 -1.36 2.34 0 2 C0 1.34 0 0.68 0 0 Z " fill="#E7E7E7" transform="translate(127,540)"/>
<path d="M0 0 C4.22435427 1.56457565 6.49058647 4.343426 9 8 C8.92087652 11.48143326 8.46645256 12.53354744 6 15 C3.875 14.625 3.875 14.625 2 14 C3.32 13.34 4.64 12.68 6 12 C6 11.01 6 10.02 6 9 C5.01 10.485 5.01 10.485 4 12 C0.84271494 12.40305767 -1.15230863 12.49220789 -3.9375 10.875 C-5.52513015 8.07329973 -4.74070176 6.03014356 -4 3 C-2.68 2.67 -1.36 2.34 0 2 C0 1.34 0 0.68 0 0 Z " fill="#E7E7E7" transform="translate(767,220)"/>
<path d="M0 0 C4.22435427 1.56457565 6.49058647 4.343426 9 8 C8.92087652 11.48143326 8.46645256 12.53354744 6 15 C3.875 14.625 3.875 14.625 2 14 C3.32 13.34 4.64 12.68 6 12 C6 11.01 6 10.02 6 9 C5.01 10.485 5.01 10.485 4 12 C0.84271494 12.40305767 -1.15230863 12.49220789 -3.9375 10.875 C-5.52513015 8.07329973 -4.74070176 6.03014356 -4 3 C-2.68 2.67 -1.36 2.34 0 2 C0 1.34 0 0.68 0 0 Z " fill="#E7E7E7" transform="translate(127,220)"/>
<path d="M0 0 C4.22435427 1.56457565 6.49058647 4.343426 9 8 C8.92087652 11.48143326 8.46645256 12.53354744 6 15 C3.875 14.625 3.875 14.625 2 14 C3.65 13.01 5.3 12.02 7 11 C6.67 10.34 6.34 9.68 6 9 C5.608125 9.495 5.21625 9.99 4.8125 10.5 C3 12 3 12 0.5 12.375 C-2 12 -2 12 -3.875 10.875 C-5 9 -5 9 -4.9375 6 C-3.88710616 2.63873972 -2.98886835 1.73547195 0 0 Z " fill="#E7E7E7" transform="translate(597,390)"/>
<path d="M0 0 C4.22435427 1.56457565 6.49058647 4.343426 9 8 C8.92087652 11.48143326 8.46645256 12.53354744 6 15 C3.875 14.625 3.875 14.625 2 14 C3.65 13.01 5.3 12.02 7 11 C6.67 10.34 6.34 9.68 6 9 C5.608125 9.495 5.21625 9.99 4.8125 10.5 C3 12 3 12 0.5 12.375 C-2 12 -2 12 -3.875 10.875 C-5 9 -5 9 -4.9375 6 C-3.88710616 2.63873972 -2.98886835 1.73547195 0 0 Z " fill="#E7E7E7" transform="translate(277,390)"/>
<path d="M0 0 C4.22435427 1.56457565 6.49058647 4.343426 9 8 C8.92087652 11.48143326 8.46645256 12.53354744 6 15 C3.875 14.625 3.875 14.625 2 14 C3.65 13.01 5.3 12.02 7 11 C6.67 10.34 6.34 9.68 6 9 C5.608125 9.495 5.21625 9.99 4.8125 10.5 C3 12 3 12 0.5 12.375 C-2 12 -2 12 -3.875 10.875 C-5 9 -5 9 -4.9375 6 C-3.88710616 2.63873972 -2.98886835 1.73547195 0 0 Z " fill="#E7E7E7" transform="translate(597,70)"/>
<path d="M0 0 C4.22435427 1.56457565 6.49058647 4.343426 9 8 C8.92087652 11.48143326 8.46645256 12.53354744 6 15 C3.875 14.625 3.875 14.625 2 14 C3.65 13.01 5.3 12.02 7 11 C6.67 10.34 6.34 9.68 6 9 C5.608125 9.495 5.21625 9.99 4.8125 10.5 C3 12 3 12 0.5 12.375 C-2 12 -2 12 -3.875 10.875 C-5 9 -5 9 -4.9375 6 C-3.88710616 2.63873972 -2.98886835 1.73547195 0 0 Z " fill="#E7E7E7" transform="translate(277,70)"/>
<path d="M0 0 C5.3820598 -0.35880399 5.3820598 -0.35880399 7.9375 1.125 C9.52513015 3.92670027 8.74070176 5.96985644 8 9 C6.68 9.33 5.36 9.66 4 10 C4.66 11.65 5.32 13.3 6 15 C2.54804233 13.5741914 0.8985744 11.90253666 -1.25 8.875 C-2.03117187 7.78832031 -2.03117187 7.78832031 -2.828125 6.6796875 C-3.21484375 6.12539062 -3.6015625 5.57109375 -4 5 C-3.34 5 -2.68 5 -2 5 C-1.34 3.35 -0.68 1.7 0 0 Z " fill="#E6E6E5" transform="translate(428,238)"/>
<path d="M0 0 C5.3820598 -0.35880399 5.3820598 -0.35880399 7.9375 1.125 C9.52513015 3.92670027 8.74070176 5.96985644 8 9 C6.68 9.33 5.36 9.66 4 10 C4.66 11.65 5.32 13.3 6 15 C-1.48291572 8.84965831 -1.48291572 8.84965831 -4 5 C-3.34 5 -2.68 5 -2 5 C-1.34 3.35 -0.68 1.7 0 0 Z " fill="#F3F3F3" transform="translate(578,408)"/>
<path d="M0 0 C5.3820598 -0.35880399 5.3820598 -0.35880399 7.9375 1.125 C9.52513015 3.92670027 8.74070176 5.96985644 8 9 C6.68 9.33 5.36 9.66 4 10 C4.66 11.65 5.32 13.3 6 15 C-1.48291572 8.84965831 -1.48291572 8.84965831 -4 5 C-3.34 5 -2.68 5 -2 5 C-1.34 3.35 -0.68 1.7 0 0 Z " fill="#F3F3F3" transform="translate(578,88)"/>
<path d="M0 0 C5.3820598 -0.35880399 5.3820598 -0.35880399 7.9375 1.125 C9.52513015 3.92670027 8.74070176 5.96985644 8 9 C6.68 9.33 5.36 9.66 4 10 C4.66 11.65 5.32 13.3 6 15 C-1.48291572 8.84965831 -1.48291572 8.84965831 -4 5 C-3.34 5 -2.68 5 -2 5 C-1.34 3.35 -0.68 1.7 0 0 Z " fill="#F3F3F3" transform="translate(258,88)"/>
<path d="M0 0 C5.3820598 -0.35880399 5.3820598 -0.35880399 7.9375 1.125 C9.52513015 3.92670027 8.74070176 5.96985644 8 9 C6.68 9.33 5.36 9.66 4 10 C4.66 11.65 5.32 13.3 6 15 C-1.48291572 8.84965831 -1.48291572 8.84965831 -4 5 C-3.34 5 -2.68 5 -2 5 C-1.34 3.35 -0.68 1.7 0 0 Z " fill="#F3F3F3" transform="translate(748,558)"/>
<path d="M0 0 C5.3820598 -0.35880399 5.3820598 -0.35880399 7.9375 1.125 C9.52513015 3.92670027 8.74070176 5.96985644 8 9 C6.68 9.33 5.36 9.66 4 10 C4.66 11.65 5.32 13.3 6 15 C-1.48291572 8.84965831 -1.48291572 8.84965831 -4 5 C-3.34 5 -2.68 5 -2 5 C-1.34 3.35 -0.68 1.7 0 0 Z " fill="#F3F3F3" transform="translate(428,558)"/>
<path d="M0 0 C5.3820598 -0.35880399 5.3820598 -0.35880399 7.9375 1.125 C9.52513015 3.92670027 8.74070176 5.96985644 8 9 C6.68 9.33 5.36 9.66 4 10 C4.66 11.65 5.32 13.3 6 15 C-1.48291572 8.84965831 -1.48291572 8.84965831 -4 5 C-3.34 5 -2.68 5 -2 5 C-1.34 3.35 -0.68 1.7 0 0 Z " fill="#F3F3F3" transform="translate(108,558)"/>
<path d="M0 0 C5.3820598 -0.35880399 5.3820598 -0.35880399 7.9375 1.125 C9.52513015 3.92670027 8.74070176 5.96985644 8 9 C6.68 9.33 5.36 9.66 4 10 C4.66 11.65 5.32 13.3 6 15 C-1.48291572 8.84965831 -1.48291572 8.84965831 -4 5 C-3.34 5 -2.68 5 -2 5 C-1.34 3.35 -0.68 1.7 0 0 Z " fill="#F3F3F3" transform="translate(748,238)"/>
<path d="M0 0 C5.3820598 -0.35880399 5.3820598 -0.35880399 7.9375 1.125 C9.52513015 3.92670027 8.74070176 5.96985644 8 9 C6.68 9.33 5.36 9.66 4 10 C4.66 11.65 5.32 13.3 6 15 C-1.48291572 8.84965831 -1.48291572 8.84965831 -4 5 C-3.34 5 -2.68 5 -2 5 C-1.34 3.35 -0.68 1.7 0 0 Z " fill="#F3F3F3" transform="translate(108,238)"/>
<path d="M0 0 C0.66 0.66 1.32 1.32 2 2 C-8.89 2 -19.78 2 -31 2 C-31 1.34 -31 0.68 -31 0 C-29.68 -0.33 -28.36 -0.66 -27 -1 C-32.28 -1 -37.56 -1 -43 -1 C-43 -1.33 -43 -1.66 -43 -2 C-29.39329863 -4.80737266 -13.27353025 -4.18154566 0 0 Z " fill="#DC7E5C" transform="translate(467,299)"/>
<path d="M0 0 C-0.99 0.495 -0.99 0.495 -2 1 C-1.67 2.65 -1.34 4.3 -1 6 C-3.98594424 7.49297212 -6.70853624 7.11755228 -10 7 C-10.66 6.67 -11.32 6.34 -12 6 C-12 5.01 -12 4.02 -12 3 C-13.65 3 -15.3 3 -17 3 C-16.67 1.68 -16.34 0.36 -16 -1 C-9.95601552 -2.38148217 -5.84832223 -2.1761199 0 0 Z " fill="#F15923" transform="translate(433,206)"/>
<path d="M0 0 C0.825 0.144375 1.65 0.28875 2.5 0.4375 C9.80386633 1.91200794 9.80386633 1.91200794 17 1 C18.796875 1.671875 18.796875 1.671875 20.75 2.75 C24.43048968 4.70756464 28.15481059 6.38097288 32 8 C35.00418783 9.32396098 38.00249771 10.6609797 41 12 C37.43182242 13.26562453 35.34510812 12.72063144 31.81640625 11.48828125 C30.81158203 11.14410156 29.80675781 10.79992187 28.77148438 10.4453125 C27.71251953 10.07148438 26.65355469 9.69765625 25.5625 9.3125 C23.39751016 8.56791991 21.23214786 7.82442186 19.06640625 7.08203125 C18.02371582 6.72189941 16.98102539 6.36176758 15.90673828 5.99072266 C10.64410315 4.19702424 5.32975911 2.58227224 0 1 C0 0.67 0 0.34 0 0 Z " fill="#E27049" transform="translate(473,227)"/>
<path d="M0 0 C0.73322479 -0.00233643 1.46644958 -0.00467285 2.22189331 -0.00708008 C13.80359017 -0.02102152 24.90421177 0.76487298 36.25 3.25 C36.25 3.58 36.25 3.91 36.25 4.25 C35.40695312 4.23839844 34.56390625 4.22679687 33.6953125 4.21484375 C32.59960938 4.20582031 31.50390625 4.19679688 30.375 4.1875 C29.28445313 4.17589844 28.19390625 4.16429687 27.0703125 4.15234375 C24.29822454 4.05255697 24.29822454 4.05255697 22.25 5.25 C20.20501575 5.16219597 18.16255052 5.00758462 16.125 4.8125 C15.02929688 4.71066406 13.93359375 4.60882813 12.8046875 4.50390625 C11.54011719 4.37822266 11.54011719 4.37822266 10.25 4.25 C11.57 3.59 12.89 2.93 14.25 2.25 C0.87329823 2.14109649 -12.41119695 2.15151034 -25.75 3.25 C-18.6207259 -1.5028494 -8.34211838 0.01203919 0 0 Z " fill="#DD7956" transform="translate(453.75,337.75)"/>
<path d="M0 0 C0.33 0.66 0.66 1.32 1 2 C0.01 2 -0.98 2 -2 2 C-2 2.66 -2 3.32 -2 4 C-2.99 4.66 -3.98 5.32 -5 6 C-5 6.66 -5 7.32 -5 8 C-3.68 8 -2.36 8 -1 8 C-0.34 7.34 0.32 6.68 1 6 C0.67 7.32 0.34 8.64 0 10 C0.99 9.34 1.98 8.68 3 8 C2.65660347 10.57547398 2.39993284 11.68894113 0.3125 13.3125 C-2.80886636 14.24047378 -4.88703957 13.87974969 -8 13 C-10.32749345 9.50875983 -10.50299316 8.10777749 -10 4 C-7.16463433 -0.14399597 -4.86205069 -0.44200461 0 0 Z " fill="#EBEBEB" transform="translate(530,612)"/>
<path d="M0 0 C0.33 0.66 0.66 1.32 1 2 C0.01 2 -0.98 2 -2 2 C-2 2.66 -2 3.32 -2 4 C-2.99 4.66 -3.98 5.32 -5 6 C-5 6.66 -5 7.32 -5 8 C-3.68 8 -2.36 8 -1 8 C-0.34 7.34 0.32 6.68 1 6 C0.67 7.32 0.34 8.64 0 10 C0.99 9.34 1.98 8.68 3 8 C2.65660347 10.57547398 2.39993284 11.68894113 0.3125 13.3125 C-2.80886636 14.24047378 -4.88703957 13.87974969 -8 13 C-10.32749345 9.50875983 -10.50299316 8.10777749 -10 4 C-7.16463433 -0.14399597 -4.86205069 -0.44200461 0 0 Z " fill="#EBEBEB" transform="translate(210,612)"/>
<path d="M0 0 C0.33 0.66 0.66 1.32 1 2 C0.01 2 -0.98 2 -2 2 C-2 2.66 -2 3.32 -2 4 C-2.99 4.66 -3.98 5.32 -5 6 C-5 6.66 -5 7.32 -5 8 C-3.68 8 -2.36 8 -1 8 C-0.34 7.34 0.32 6.68 1 6 C0.67 7.32 0.34 8.64 0 10 C0.99 9.34 1.98 8.68 3 8 C2.65660347 10.57547398 2.39993284 11.68894113 0.3125 13.3125 C-2.80886636 14.24047378 -4.88703957 13.87974969 -8 13 C-10.32749345 9.50875983 -10.50299316 8.10777749 -10 4 C-7.16463433 -0.14399597 -4.86205069 -0.44200461 0 0 Z " fill="#EBEBEB" transform="translate(530,292)"/>
<path d="M0 0 C6.40615131 2.51431409 12.7337314 5.15444808 19 8 C18.67 8.99 18.34 9.98 18 11 C10.25 10.125 10.25 10.125 8 9 C5.96416877 8.61369961 3.9212682 8.26403216 1.875 7.9375 C0.77929688 7.76089844 -0.31640625 7.58429688 -1.4453125 7.40234375 C-2.28835938 7.26957031 -3.13140625 7.13679687 -4 7 C-4 6.67 -4 6.34 -4 6 C-1.69 5.34 0.62 4.68 3 4 C2.01 3.34 1.02 2.68 0 2 C0 1.34 0 0.68 0 0 Z " fill="#F05922" transform="translate(469,219)"/>
<path d="M0 0 C-0.74443359 0.61875 -0.74443359 0.61875 -1.50390625 1.25 C-5.93374182 5.01578052 -9.84042672 8.92404893 -13.5546875 13.3984375 C-15 15 -15 15 -17 16 C-16.67 13.69 -16.34 11.38 -16 9 C-15.34 9 -14.68 9 -14 9 C-14 8.34 -14 7.68 -14 7 C-15.65 8.32 -17.3 9.64 -19 11 C-19.66 10.34 -20.32 9.68 -21 9 C-18.91794343 7.70623653 -16.83442696 6.41493446 -14.75 5.125 C-14.16347656 4.76019531 -13.57695312 4.39539063 -12.97265625 4.01953125 C-11.32302257 3.00009471 -9.66179687 1.99948652 -8 1 C-7.28328125 0.56429687 -6.5665625 0.12859375 -5.828125 -0.3203125 C-3.5270312 -1.17584738 -2.27520007 -0.81257145 0 0 Z " fill="#E5693C" transform="translate(332,251)"/>
<path d="M0 0 C0.66 0.66 1.32 1.32 2 2 C1.11699219 1.91621094 0.23398437 1.83242187 -0.67578125 1.74609375 C-7.46507181 1.16998854 -13.83698447 0.92704874 -20.59765625 1.84375 C-23 2 -23 2 -25.2578125 1.53515625 C-29.11815437 0.78178469 -32.89039399 0.89476121 -36.8125 0.9375 C-37.60076172 0.94201172 -38.38902344 0.94652344 -39.20117188 0.95117188 C-41.13414761 0.96288688 -43.06708393 0.98082002 -45 1 C-45 0.67 -45 0.34 -45 0 C-30.50513139 -2.39443257 -14.34367033 -4.14941892 0 0 Z " fill="#E2774F" transform="translate(572,253)"/>
<path d="M0 0 C15.84 0 31.68 0 48 0 C48 0.33 48 0.66 48 1 C47.09797852 1.02187378 47.09797852 1.02187378 46.17773438 1.04418945 C30.62853495 1.4599513 15.39627898 2.8071313 0 5 C-1.10577393 5.15662109 -1.10577393 5.15662109 -2.23388672 5.31640625 C-3.82285336 5.54243506 -5.41147829 5.77086511 -7 6 C-6 4 -6 4 -2.9375 2.875 C-1.4834375 2.441875 -1.4834375 2.441875 0 2 C0 1.34 0 0.68 0 0 Z " fill="#E18969" transform="translate(352,211)"/>
<path d="M0 0 C-0.69867188 0.55429687 -1.39734375 1.10859375 -2.1171875 1.6796875 C-3.02726562 2.40414063 -3.93734375 3.12859375 -4.875 3.875 C-5.77992188 4.59429687 -6.68484375 5.31359375 -7.6171875 6.0546875 C-10.00265176 7.93560474 -10.00265176 7.93560474 -12 10 C-12.680625 10.144375 -13.36125 10.28875 -14.0625 10.4375 C-14.701875 10.623125 -15.34125 10.80875 -16 11 C-16.33 11.99 -16.66 12.98 -17 14 C-19.31 14.33 -21.62 14.66 -24 15 C-19.06421337 8.63543303 -8.87825144 -2.95941715 0 0 Z " fill="#E76331" transform="translate(416,319)"/>
<path d="M0 0 C1.9375 1.125 1.9375 1.125 3 3 C2.8125 6.125 2.8125 6.125 2 9 C1.01 9.495 1.01 9.495 0 10 C-3.74281699 7.61820737 -6.97727468 5.25524265 -10 2 C-6.60268371 -0.09065618 -3.95730595 -0.42098999 0 0 Z " fill="#EDE9E8" transform="translate(264,408)"/>
<path d="M0 0 C1.32 0.66 2.64 1.32 4 2 C1.36 2.99 -1.28 3.98 -4 5 C-1.41834005 7.58165995 0.5843011 7.3048816 4.08984375 7.6484375 C6.50817063 8.09352834 7.6044971 8.99396458 9 11 C5.03217818 10.35928169 1.09760684 9.63336918 -2.8359375 8.80859375 C-3.89941406 8.58623047 -4.96289062 8.36386719 -6.05859375 8.13476562 C-7.15300781 7.90466797 -8.24742187 7.67457031 -9.375 7.4375 C-11.05142578 7.08655273 -11.05142578 7.08655273 -12.76171875 6.72851562 C-15.50804229 6.15343078 -18.25412566 5.57722515 -21 5 C-21 4.67 -21 4.34 -21 4 C-18.43795456 3.66280953 -15.87545682 3.33012847 -13.3125 3 C-12.59126953 2.90460938 -11.87003906 2.80921875 -11.12695312 2.7109375 C-7.39007129 2.23316265 -3.77708469 1.88080206 0 2 C0 1.34 0 0.68 0 0 Z " fill="#E66A3C" transform="translate(528,354)"/>
<path d="M0 0 C2.31 0.33 4.62 0.66 7 1 C5.95125002 3.62187494 5.35068687 4.79371361 2.875 6.25 C2.25625 6.4975 1.6375 6.745 1 7 C1.33 7.66 1.66 8.32 2 9 C3.94999129 8.80528889 3.94999129 8.80528889 6 8 C7.28436734 6.0162233 7.28436734 6.0162233 8 4 C9 6 9 6 8.4375 8.0625 C7 10 7 10 4.0625 10.9375 C1 11 1 11 -0.8125 9.75 C-2 8 -2 8 -3 5 C-1.5625 2.3125 -1.5625 2.3125 0 0 Z " fill="#E7E7E7" transform="translate(789,517)"/>
<path d="M0 0 C2.31 0.33 4.62 0.66 7 1 C5.95125002 3.62187494 5.35068687 4.79371361 2.875 6.25 C2.25625 6.4975 1.6375 6.745 1 7 C1.33 7.66 1.66 8.32 2 9 C3.94999129 8.80528889 3.94999129 8.80528889 6 8 C7.28436734 6.0162233 7.28436734 6.0162233 8 4 C9 6 9 6 8.4375 8.0625 C7 10 7 10 4.0625 10.9375 C1 11 1 11 -0.8125 9.75 C-2 8 -2 8 -3 5 C-1.5625 2.3125 -1.5625 2.3125 0 0 Z " fill="#E7E7E7" transform="translate(469,517)"/>
<path d="M0 0 C2.31 0.33 4.62 0.66 7 1 C5.95125002 3.62187494 5.35068687 4.79371361 2.875 6.25 C2.25625 6.4975 1.6375 6.745 1 7 C1.33 7.66 1.66 8.32 2 9 C3.94999129 8.80528889 3.94999129 8.80528889 6 8 C7.28436734 6.0162233 7.28436734 6.0162233 8 4 C9 6 9 6 8.4375 8.0625 C7 10 7 10 4.0625 10.9375 C1 11 1 11 -0.8125 9.75 C-2 8 -2 8 -3 5 C-1.5625 2.3125 -1.5625 2.3125 0 0 Z " fill="#E7E7E7" transform="translate(149,517)"/>
<path d="M0 0 C2.31 0.33 4.62 0.66 7 1 C5.95125002 3.62187494 5.35068687 4.79371361 2.875 6.25 C2.25625 6.4975 1.6375 6.745 1 7 C1.33 7.66 1.66 8.32 2 9 C3.94999129 8.80528889 3.94999129 8.80528889 6 8 C7.28436734 6.0162233 7.28436734 6.0162233 8 4 C9 6 9 6 8.4375 8.0625 C7 10 7 10 4.0625 10.9375 C1 11 1 11 -0.8125 9.75 C-2 8 -2 8 -3 5 C-1.5625 2.3125 -1.5625 2.3125 0 0 Z " fill="#E7E7E7" transform="translate(789,197)"/>
<path d="M0 0 C2.31 0.33 4.62 0.66 7 1 C5.95125002 3.62187494 5.35068687 4.79371361 2.875 6.25 C2.25625 6.4975 1.6375 6.745 1 7 C1.33 7.66 1.66 8.32 2 9 C3.94999129 8.80528889 3.94999129 8.80528889 6 8 C7.28436734 6.0162233 7.28436734 6.0162233 8 4 C9 6 9 6 8.4375 8.0625 C7 10 7 10 4.0625 10.9375 C1 11 1 11 -0.8125 9.75 C-2 8 -2 8 -3 5 C-1.5625 2.3125 -1.5625 2.3125 0 0 Z " fill="#E7E7E7" transform="translate(469,197)"/>
<path d="M0 0 C2.31 0.33 4.62 0.66 7 1 C5.95125002 3.62187494 5.35068687 4.79371361 2.875 6.25 C2.25625 6.4975 1.6375 6.745 1 7 C1.33 7.66 1.66 8.32 2 9 C3.94999129 8.80528889 3.94999129 8.80528889 6 8 C7.28436734 6.0162233 7.28436734 6.0162233 8 4 C9 6 9 6 8.4375 8.0625 C7 10 7 10 4.0625 10.9375 C1 11 1 11 -0.8125 9.75 C-2 8 -2 8 -3 5 C-1.5625 2.3125 -1.5625 2.3125 0 0 Z " fill="#E7E7E7" transform="translate(149,197)"/>
<path d="M0 0 C0.763125 0.20625 1.52625 0.4125 2.3125 0.625 C1.0633258 4.08425163 -0.36277795 6.77193203 -2.6875 9.625 C-0.72855639 9.51193303 -0.72855639 9.51193303 1.3125 8.625 C2.60910434 6.13465614 2.60910434 6.13465614 3.3125 3.625 C3.9375 5.4375 3.9375 5.4375 4.3125 7.625 C3.3225 9.11 3.3225 9.11 2.3125 10.625 C-0.84478506 11.02805767 -2.83980863 11.11720789 -5.625 9.5 C-6.6875 7.625 -6.6875 7.625 -6.5625 4.5625 C-5.40604028 0.68009949 -4.11712088 -0.57448198 0 0 Z " fill="#E7E7E7" transform="translate(784.6875,525.375)"/>
<path d="M0 0 C0.763125 0.20625 1.52625 0.4125 2.3125 0.625 C1.0633258 4.08425163 -0.36277795 6.77193203 -2.6875 9.625 C-0.72855639 9.51193303 -0.72855639 9.51193303 1.3125 8.625 C2.60910434 6.13465614 2.60910434 6.13465614 3.3125 3.625 C3.9375 5.4375 3.9375 5.4375 4.3125 7.625 C3.3225 9.11 3.3225 9.11 2.3125 10.625 C-0.84478506 11.02805767 -2.83980863 11.11720789 -5.625 9.5 C-6.6875 7.625 -6.6875 7.625 -6.5625 4.5625 C-5.40604028 0.68009949 -4.11712088 -0.57448198 0 0 Z " fill="#E7E7E7" transform="translate(464.6875,525.375)"/>
<path d="M0 0 C0.763125 0.20625 1.52625 0.4125 2.3125 0.625 C1.0633258 4.08425163 -0.36277795 6.77193203 -2.6875 9.625 C-0.72855639 9.51193303 -0.72855639 9.51193303 1.3125 8.625 C2.60910434 6.13465614 2.60910434 6.13465614 3.3125 3.625 C3.9375 5.4375 3.9375 5.4375 4.3125 7.625 C3.3225 9.11 3.3225 9.11 2.3125 10.625 C-0.84478506 11.02805767 -2.83980863 11.11720789 -5.625 9.5 C-6.6875 7.625 -6.6875 7.625 -6.5625 4.5625 C-5.40604028 0.68009949 -4.11712088 -0.57448198 0 0 Z " fill="#E7E7E7" transform="translate(144.6875,525.375)"/>
<path d="M0 0 C0.66 0.33 1.32 0.66 2 1 C1.34 1.66 0.68 2.32 0 3 C-0.99 3 -1.98 3 -3 3 C-2.67 3.99 -2.34 4.98 -2 6 C-2.33 6.66 -2.66 7.32 -3 8 C-2.01 8.33 -1.02 8.66 0 9 C-1.49835228 13.66154042 -4.88463591 14.86610751 -9 17 C-9 16.01 -9 15.02 -9 14 C-8.34 14 -7.68 14 -7 14 C-6.67 12.68 -6.34 11.36 -6 10 C-6.66 10 -7.32 10 -8 10 C-8 9.34 -8 8.68 -8 8 C-7.34 7.67 -6.68 7.34 -6 7 C-6.99 6.34 -7.98 5.68 -9 5 C-7.54735962 4.1361871 -6.0876837 3.28419546 -4.625 2.4375 C-3.40683594 1.72400391 -3.40683594 1.72400391 -2.1640625 0.99609375 C-1.44992187 0.66738281 -0.73578125 0.33867187 0 0 Z " fill="#E8673A" transform="translate(399,305)"/>
<path d="M0 0 C0.763125 0.20625 1.52625 0.4125 2.3125 0.625 C1.0633258 4.08425163 -0.36277795 6.77193203 -2.6875 9.625 C-0.72855639 9.51193303 -0.72855639 9.51193303 1.3125 8.625 C2.60910434 6.13465614 2.60910434 6.13465614 3.3125 3.625 C3.9375 5.4375 3.9375 5.4375 4.3125 7.625 C3.3225 9.11 3.3225 9.11 2.3125 10.625 C-0.84478506 11.02805767 -2.83980863 11.11720789 -5.625 9.5 C-6.6875 7.625 -6.6875 7.625 -6.5625 4.5625 C-5.40604028 0.68009949 -4.11712088 -0.57448198 0 0 Z " fill="#E7E7E7" transform="translate(784.6875,205.375)"/>
<path d="M0 0 C0.763125 0.20625 1.52625 0.4125 2.3125 0.625 C1.0633258 4.08425163 -0.36277795 6.77193203 -2.6875 9.625 C-0.72855639 9.51193303 -0.72855639 9.51193303 1.3125 8.625 C2.60910434 6.13465614 2.60910434 6.13465614 3.3125 3.625 C3.9375 5.4375 3.9375 5.4375 4.3125 7.625 C3.3225 9.11 3.3225 9.11 2.3125 10.625 C-0.84478506 11.02805767 -2.83980863 11.11720789 -5.625 9.5 C-6.6875 7.625 -6.6875 7.625 -6.5625 4.5625 C-5.40604028 0.68009949 -4.11712088 -0.57448198 0 0 Z " fill="#E7E7E7" transform="translate(144.6875,205.375)"/>
<path d="M0 0 C1 2 1 2 0.1015625 5.74609375 C-1.4202456 12.12873597 -1.4582514 18.52803943 -1.625 25.0625 C-1.66367188 26.30966797 -1.70234375 27.55683594 -1.7421875 28.84179688 C-1.83575358 31.89439017 -1.92149672 34.94698847 -2 38 C-2.33 38 -2.66 38 -3 38 C-3.33 35.36 -3.66 32.72 -4 30 C-4.33 30 -4.66 30 -5 30 C-5.02708567 28.39592672 -5.04643483 26.7917215 -5.0625 25.1875 C-5.07410156 24.29417969 -5.08570313 23.40085937 -5.09765625 22.48046875 C-5 20 -5 20 -4 17 C-3.77548542 14.77425665 -3.59217122 12.54418481 -3.4375 10.3125 C-3.35371094 9.13300781 -3.26992187 7.95351563 -3.18359375 6.73828125 C-3.12300781 5.83464844 -3.06242188 4.93101562 -3 4 C-2.34 4 -1.68 4 -1 4 C-0.67 2.68 -0.34 1.36 0 0 Z " fill="#E4683A" transform="translate(231,316)"/>
<path d="M0 0 C0.2475 0.5775 0.495 1.155 0.75 1.75 C2.16683317 4.3002997 3.87627537 6.01785701 6 8 C5.67 8.99 5.34 9.98 5 11 C1.55269416 11.39397781 0.24386886 11.1644697 -2.6875 9.1875 C-5 7 -5 7 -7 4 C-6.67 3.34 -6.34 2.68 -6 2 C-5.34 2.33 -4.68 2.66 -4 3 C-2.68 2.01 -1.36 1.02 0 0 Z " fill="#EDEDED" transform="translate(775,532)"/>
<path d="M0 0 C0.2475 0.5775 0.495 1.155 0.75 1.75 C2.16683317 4.3002997 3.87627537 6.01785701 6 8 C5.67 8.99 5.34 9.98 5 11 C1.55269416 11.39397781 0.24386886 11.1644697 -2.6875 9.1875 C-5 7 -5 7 -7 4 C-6.67 3.34 -6.34 2.68 -6 2 C-5.34 2.33 -4.68 2.66 -4 3 C-2.68 2.01 -1.36 1.02 0 0 Z " fill="#EDEDED" transform="translate(455,532)"/>
<path d="M0 0 C0.2475 0.5775 0.495 1.155 0.75 1.75 C2.16683317 4.3002997 3.87627537 6.01785701 6 8 C5.67 8.99 5.34 9.98 5 11 C1.55269416 11.39397781 0.24386886 11.1644697 -2.6875 9.1875 C-5 7 -5 7 -7 4 C-6.67 3.34 -6.34 2.68 -6 2 C-5.34 2.33 -4.68 2.66 -4 3 C-2.68 2.01 -1.36 1.02 0 0 Z " fill="#EDEDED" transform="translate(135,532)"/>
<path d="M0 0 C0.2475 0.5775 0.495 1.155 0.75 1.75 C2.16683317 4.3002997 3.87627537 6.01785701 6 8 C5.67 8.99 5.34 9.98 5 11 C1.55269416 11.39397781 0.24386886 11.1644697 -2.6875 9.1875 C-5 7 -5 7 -7 4 C-6.67 3.34 -6.34 2.68 -6 2 C-5.34 2.33 -4.68 2.66 -4 3 C-2.68 2.01 -1.36 1.02 0 0 Z " fill="#EBEBEB" transform="translate(605,382)"/>
<path d="M0 0 C0.33 0 0.66 0 1 0 C1.33 14.52 1.66 29.04 2 44 C-1.10551666 40.89448334 -1.81323934 39.10801767 -3 35 C-2.01 34.505 -2.01 34.505 -1 34 C-0.67 22.78 -0.34 11.56 0 0 Z " fill="#E08865" transform="translate(285,338)"/>
<path d="M0 0 C0.2475 0.5775 0.495 1.155 0.75 1.75 C2.16683317 4.3002997 3.87627537 6.01785701 6 8 C5.67 8.99 5.34 9.98 5 11 C1.55269416 11.39397781 0.24386886 11.1644697 -2.6875 9.1875 C-5 7 -5 7 -7 4 C-6.67 3.34 -6.34 2.68 -6 2 C-5.34 2.33 -4.68 2.66 -4 3 C-2.68 2.01 -1.36 1.02 0 0 Z " fill="#EDEDED" transform="translate(775,212)"/>
<path d="M0 0 C0.2475 0.5775 0.495 1.155 0.75 1.75 C2.16683317 4.3002997 3.87627537 6.01785701 6 8 C5.67 8.99 5.34 9.98 5 11 C1.55269416 11.39397781 0.24386886 11.1644697 -2.6875 9.1875 C-5 7 -5 7 -7 4 C-6.67 3.34 -6.34 2.68 -6 2 C-5.34 2.33 -4.68 2.66 -4 3 C-2.68 2.01 -1.36 1.02 0 0 Z " fill="#EDEDED" transform="translate(135,212)"/>
<path d="M0 0 C0.2475 0.5775 0.495 1.155 0.75 1.75 C2.16683317 4.3002997 3.87627537 6.01785701 6 8 C5.67 8.99 5.34 9.98 5 11 C1.55269416 11.39397781 0.24386886 11.1644697 -2.6875 9.1875 C-5 7 -5 7 -7 4 C-6.67 3.34 -6.34 2.68 -6 2 C-5.34 2.33 -4.68 2.66 -4 3 C-2.68 2.01 -1.36 1.02 0 0 Z " fill="#EBEBEB" transform="translate(605,62)"/>
<path d="M0 0 C0.2475 0.5775 0.495 1.155 0.75 1.75 C2.16683317 4.3002997 3.87627537 6.01785701 6 8 C5.67 8.99 5.34 9.98 5 11 C1.55269416 11.39397781 0.24386886 11.1644697 -2.6875 9.1875 C-5 7 -5 7 -7 4 C-6.67 3.34 -6.34 2.68 -6 2 C-5.34 2.33 -4.68 2.66 -4 3 C-2.68 2.01 -1.36 1.02 0 0 Z " fill="#EBEBEB" transform="translate(285,62)"/>
<path d="M0 0 C-1.2491742 3.45925163 -2.67527795 6.14693203 -5 9 C-8.73487777 8.5020163 -10.81237635 8.12508244 -14 6 C-12.68 6 -11.36 6 -10 6 C-9.319375 4.5459375 -9.319375 4.5459375 -8.625 3.0625 C-6.1596543 -1.58372843 -4.7671873 -1.12907068 0 0 Z " fill="#E6DFDD" transform="translate(467,206)"/>
<path d="M0 0 C5.31027254 1.46032495 9.46330032 3.98320986 14 7 C10.57032105 8.16983989 8.45660565 7.81325413 5.015625 6.78515625 C4.08105469 6.51123047 3.14648438 6.23730469 2.18359375 5.95507812 C1.21550781 5.66052734 0.24742187 5.36597656 -0.75 5.0625 C-1.73355469 4.77181641 -2.71710937 4.48113281 -3.73046875 4.18164062 C-6.15643388 3.46327231 -8.57927358 2.73579178 -11 2 C-7.08263419 0.8299903 -4.02040985 1.30415983 0 2 C0 1.34 0 0.68 0 0 Z " fill="#DE754C" transform="translate(549,364)"/>
<path d="M0 0 C0.66 0 1.32 0 2 0 C1.98839844 0.74765625 1.97679687 1.4953125 1.96484375 2.265625 C1.95582031 3.25046875 1.94679688 4.2353125 1.9375 5.25 C1.92589844 6.22453125 1.91429687 7.1990625 1.90234375 8.203125 C1.98804423 10.65758678 2.29293934 12.66168914 3 15 C2.34 15 1.68 15 1 15 C1 14.34 1 13.68 1 13 C0.34 13 -0.32 13 -1 13 C-1 14.65 -1 16.3 -1 18 C-2.5625 16.5625 -2.5625 16.5625 -4 14 C-4.20415698 8.78913613 -3.33177156 4.13139673 0 0 Z " fill="#E2754D" transform="translate(429,251)"/>
<path d="M0 0 C3.08492422 3.08492422 3.06388049 5.90775348 3.125 10.125 C3 14 3 14 2 16 C-0.0625 16.625 -0.0625 16.625 -2 17 C-3.35015859 12.94952424 -2.62084998 10.2079832 -2 6 C-1.34 6 -0.68 6 0 6 C0 4.02 0 2.04 0 0 Z " fill="#F15922" transform="translate(572,320)"/>
<path d="M0 0 C-2.5718642 2.5718642 -5.21651433 4.91046759 -8.9453125 5.09765625 C-10.96354167 5.06510417 -12.98177083 5.03255208 -15 5 C-15 4.67 -15 4.34 -15 4 C-17.97 3.505 -17.97 3.505 -21 3 C-21 2.67 -21 2.34 -21 2 C-18.25162151 1.46892686 -15.50187625 0.94984119 -12.75 0.4375 C-11.97269531 0.28603516 -11.19539063 0.13457031 -10.39453125 -0.02148438 C-9.64042969 -0.16005859 -8.88632812 -0.29863281 -8.109375 -0.44140625 C-7.07248535 -0.63778687 -7.07248535 -0.63778687 -6.01464844 -0.83813477 C-3.78712058 -1.01710362 -2.12493038 -0.65206197 0 0 Z " fill="#E57145" transform="translate(482,266)"/>
<path d="M0 0 C0.33 0 0.66 0 1 0 C1 1.65 1 3.3 1 5 C2.299375 4.87625 3.59875 4.7525 4.9375 4.625 C5.66839844 4.55539062 6.39929688 4.48578125 7.15234375 4.4140625 C7.76207031 4.27742188 8.37179688 4.14078125 9 4 C9.33 3.34 9.66 2.68 10 2 C10.66 2 11.32 2 12 2 C11.01 5.96 10.02 9.92 9 14 C8.67 12.68 8.34 11.36 8 10 C7.05125 9.896875 6.1025 9.79375 5.125 9.6875 C2 9 2 9 0 6 C-0.125 2.8125 -0.125 2.8125 0 0 Z " fill="#EBE4E2" transform="translate(200,296)"/>
<path d="M0 0 C2.625 -0.1875 2.625 -0.1875 5 0 C6.125 2.3125 6.125 2.3125 7 5 C6.01 6.485 6.01 6.485 5 8 C2.03 7.505 2.03 7.505 -1 7 C-1.625 5.1875 -1.625 5.1875 -2 3 C-1.34 2.01 -0.68 1.02 0 0 Z " fill="#F3F3F3" transform="translate(765,543)"/>
<path d="M0 0 C2.625 -0.1875 2.625 -0.1875 5 0 C6.125 2.3125 6.125 2.3125 7 5 C6.01 6.485 6.01 6.485 5 8 C2.03 7.505 2.03 7.505 -1 7 C-1.625 5.1875 -1.625 5.1875 -2 3 C-1.34 2.01 -0.68 1.02 0 0 Z " fill="#F3F3F3" transform="translate(445,543)"/>
<path d="M0 0 C2.625 -0.1875 2.625 -0.1875 5 0 C6.125 2.3125 6.125 2.3125 7 5 C6.01 6.485 6.01 6.485 5 8 C2.03 7.505 2.03 7.505 -1 7 C-1.625 5.1875 -1.625 5.1875 -2 3 C-1.34 2.01 -0.68 1.02 0 0 Z " fill="#F3F3F3" transform="translate(125,543)"/>
<path d="M0 0 C-4.15955399 2.22720865 -8.29456651 3.12603631 -12.875 4.125 C-14.06029297 4.39763672 -14.06029297 4.39763672 -15.26953125 4.67578125 C-19.5943833 5.63286165 -23.54025336 6.21510032 -28 6 C-27.67 5.34 -27.34 4.68 -27 4 C-24.41682273 3.60534792 -21.85811719 3.49193848 -19.25 3.34375 C-18.5075 3.2303125 -17.765 3.116875 -17 3 C-16.67 2.34 -16.34 1.68 -16 1 C-10.5883093 -1.6364647 -5.74870662 -0.84071994 0 0 Z " fill="#E26C3E" transform="translate(518,274)"/>
<path d="M0 0 C2.625 -0.1875 2.625 -0.1875 5 0 C6.125 2.3125 6.125 2.3125 7 5 C6.01 6.485 6.01 6.485 5 8 C2.03 7.505 2.03 7.505 -1 7 C-1.625 5.1875 -1.625 5.1875 -2 3 C-1.34 2.01 -0.68 1.02 0 0 Z " fill="#F3F3F3" transform="translate(765,223)"/>
<path d="M0 0 C2.625 -0.1875 2.625 -0.1875 5 0 C6.125 2.3125 6.125 2.3125 7 5 C6.01 6.485 6.01 6.485 5 8 C2.03 7.505 2.03 7.505 -1 7 C-1.625 5.1875 -1.625 5.1875 -2 3 C-1.34 2.01 -0.68 1.02 0 0 Z " fill="#F3F3F3" transform="translate(445,223)"/>
<path d="M0 0 C2.625 -0.1875 2.625 -0.1875 5 0 C6.125 2.3125 6.125 2.3125 7 5 C6.01 6.485 6.01 6.485 5 8 C2.03 7.505 2.03 7.505 -1 7 C-1.625 5.1875 -1.625 5.1875 -2 3 C-1.34 2.01 -0.68 1.02 0 0 Z " fill="#F3F3F3" transform="translate(125,223)"/>
<path d="M0 0 C2.4375 0.1875 2.4375 0.1875 5 1 C6.3125 3.0625 6.3125 3.0625 7 5 C6.01 6.485 6.01 6.485 5 8 C2.5 8.375 2.5 8.375 0 8 C-2 5 -2 5 -1.6875 2.875 C-1 1 -1 1 0 0 Z " fill="#F3F3F3" transform="translate(429,239)"/>
<path d="M0 0 C2.375 0.25 2.375 0.25 5 1 C6.3125 3.0625 6.3125 3.0625 7 5 C6.01 6.485 6.01 6.485 5 8 C2.375 8.1875 2.375 8.1875 0 8 C-1.125 5.6875 -1.125 5.6875 -2 3 C-1.34 2.01 -0.68 1.02 0 0 Z " fill="#F05B25" transform="translate(259,239)"/>
<path d="M0 0 C5.3820598 -0.35880399 5.3820598 -0.35880399 7.9375 1.125 C9.52513015 3.92670027 8.74070176 5.96985644 8 9 C6.68 9.33 5.36 9.66 4 10 C4.66 11.65 5.32 13.3 6 15 C-1.48291572 8.84965831 -1.48291572 8.84965831 -4 5 C-3.34 5 -2.68 5 -2 5 C-1.34 3.35 -0.68 1.7 0 0 Z M1 1 C0.34 1.66 -0.32 2.32 -1 3 C-0.71016731 6.30683466 -0.71016731 6.30683466 1 9 C2.66617115 9.04063832 4.33388095 9.042721 6 9 C6.66 7.68 7.32 6.36 8 5 C6.77409808 2.92022703 6.77409808 2.92022703 5 1 C3.68 1 2.36 1 1 1 Z " fill="#E7E7E7" transform="translate(748,558)"/>
<path d="M0 0 C5.3820598 -0.35880399 5.3820598 -0.35880399 7.9375 1.125 C9.52513015 3.92670027 8.74070176 5.96985644 8 9 C6.68 9.33 5.36 9.66 4 10 C4.66 11.65 5.32 13.3 6 15 C-1.48291572 8.84965831 -1.48291572 8.84965831 -4 5 C-3.34 5 -2.68 5 -2 5 C-1.34 3.35 -0.68 1.7 0 0 Z M1 1 C0.34 1.66 -0.32 2.32 -1 3 C-0.71016731 6.30683466 -0.71016731 6.30683466 1 9 C2.66617115 9.04063832 4.33388095 9.042721 6 9 C6.66 7.68 7.32 6.36 8 5 C6.77409808 2.92022703 6.77409808 2.92022703 5 1 C3.68 1 2.36 1 1 1 Z " fill="#E7E7E7" transform="translate(428,558)"/>
<path d="M0 0 C5.3820598 -0.35880399 5.3820598 -0.35880399 7.9375 1.125 C9.52513015 3.92670027 8.74070176 5.96985644 8 9 C6.68 9.33 5.36 9.66 4 10 C4.66 11.65 5.32 13.3 6 15 C-1.48291572 8.84965831 -1.48291572 8.84965831 -4 5 C-3.34 5 -2.68 5 -2 5 C-1.34 3.35 -0.68 1.7 0 0 Z M1 1 C0.34 1.66 -0.32 2.32 -1 3 C-0.71016731 6.30683466 -0.71016731 6.30683466 1 9 C2.66617115 9.04063832 4.33388095 9.042721 6 9 C6.66 7.68 7.32 6.36 8 5 C6.77409808 2.92022703 6.77409808 2.92022703 5 1 C3.68 1 2.36 1 1 1 Z " fill="#E7E7E7" transform="translate(108,558)"/>
<path d="M0 0 C5.3820598 -0.35880399 5.3820598 -0.35880399 7.9375 1.125 C9.52513015 3.92670027 8.74070176 5.96985644 8 9 C6.68 9.33 5.36 9.66 4 10 C4.66 11.65 5.32 13.3 6 15 C-1.48291572 8.84965831 -1.48291572 8.84965831 -4 5 C-3.34 5 -2.68 5 -2 5 C-1.34 3.35 -0.68 1.7 0 0 Z M1 1 C-0.19838209 3.32854463 -0.19838209 3.32854463 -1 6 C-0.01 7.485 -0.01 7.485 1 9 C3.58380177 9.25030977 3.58380177 9.25030977 6 9 C6.66 7.35 7.32 5.7 8 4 C6.7511573 2.4166747 6.7511573 2.4166747 5 1 C3.68 1 2.36 1 1 1 Z " fill="#E7E7E7" transform="translate(578,408)"/>
<path d="M0 0 C0.33 0.99 0.66 1.98 1 3 C0.0479279 4.00596297 -0.91187346 5.00461563 -1.875 6 C-2.40867187 6.556875 -2.94234375 7.11375 -3.4921875 7.6875 C-5 9 -5 9 -7 9 C-7.33 9.99 -7.66 10.98 -8 12 C-8.66 12 -9.32 12 -10 12 C-10.0880829 6.71502591 -10.0880829 6.71502591 -9 4 C-6.19000537 2.0701169 -3.24620101 0.99681324 0 0 Z " fill="#E7683D" transform="translate(394,369)"/>
<path d="M0 0 C5.3820598 -0.35880399 5.3820598 -0.35880399 7.9375 1.125 C9.52513015 3.92670027 8.74070176 5.96985644 8 9 C6.68 9.33 5.36 9.66 4 10 C4.66 11.65 5.32 13.3 6 15 C-1.48291572 8.84965831 -1.48291572 8.84965831 -4 5 C-3.34 5 -2.68 5 -2 5 C-1.34 3.35 -0.68 1.7 0 0 Z M1 1 C0.34 1.66 -0.32 2.32 -1 3 C-0.71016731 6.30683466 -0.71016731 6.30683466 1 9 C2.66617115 9.04063832 4.33388095 9.042721 6 9 C6.66 7.68 7.32 6.36 8 5 C6.77409808 2.92022703 6.77409808 2.92022703 5 1 C3.68 1 2.36 1 1 1 Z " fill="#E7E7E7" transform="translate(748,238)"/>
<path d="M0 0 C5.3820598 -0.35880399 5.3820598 -0.35880399 7.9375 1.125 C9.52513015 3.92670027 8.74070176 5.96985644 8 9 C6.68 9.33 5.36 9.66 4 10 C4.66 11.65 5.32 13.3 6 15 C-1.48291572 8.84965831 -1.48291572 8.84965831 -4 5 C-3.34 5 -2.68 5 -2 5 C-1.34 3.35 -0.68 1.7 0 0 Z M1 1 C0.34 1.66 -0.32 2.32 -1 3 C-0.71016731 6.30683466 -0.71016731 6.30683466 1 9 C2.66617115 9.04063832 4.33388095 9.042721 6 9 C6.66 7.68 7.32 6.36 8 5 C6.77409808 2.92022703 6.77409808 2.92022703 5 1 C3.68 1 2.36 1 1 1 Z " fill="#E7E7E7" transform="translate(108,238)"/>
<path d="M0 0 C5.3820598 -0.35880399 5.3820598 -0.35880399 7.9375 1.125 C9.52513015 3.92670027 8.74070176 5.96985644 8 9 C6.68 9.33 5.36 9.66 4 10 C4.66 11.65 5.32 13.3 6 15 C-1.48291572 8.84965831 -1.48291572 8.84965831 -4 5 C-3.34 5 -2.68 5 -2 5 C-1.34 3.35 -0.68 1.7 0 0 Z M1 1 C-0.19838209 3.32854463 -0.19838209 3.32854463 -1 6 C-0.01 7.485 -0.01 7.485 1 9 C3.58380177 9.25030977 3.58380177 9.25030977 6 9 C6.66 7.35 7.32 5.7 8 4 C6.7511573 2.4166747 6.7511573 2.4166747 5 1 C3.68 1 2.36 1 1 1 Z " fill="#E7E7E7" transform="translate(578,88)"/>
<path d="M0 0 C5.3820598 -0.35880399 5.3820598 -0.35880399 7.9375 1.125 C9.52513015 3.92670027 8.74070176 5.96985644 8 9 C6.68 9.33 5.36 9.66 4 10 C4.66 11.65 5.32 13.3 6 15 C-1.48291572 8.84965831 -1.48291572 8.84965831 -4 5 C-3.34 5 -2.68 5 -2 5 C-1.34 3.35 -0.68 1.7 0 0 Z M1 1 C-0.19838209 3.32854463 -0.19838209 3.32854463 -1 6 C-0.01 7.485 -0.01 7.485 1 9 C3.58380177 9.25030977 3.58380177 9.25030977 6 9 C6.66 7.35 7.32 5.7 8 4 C6.7511573 2.4166747 6.7511573 2.4166747 5 1 C3.68 1 2.36 1 1 1 Z " fill="#E7E7E7" transform="translate(258,88)"/>
<path d="M0 0 C1.2684375 0.12375 1.2684375 0.12375 2.5625 0.25 C4.5625 3.25 4.5625 3.25 4.1875 5.4375 C3.98125 6.035625 3.775 6.63375 3.5625 7.25 C1.56295254 7.29254356 -0.43791636 7.29080783 -2.4375 7.25 C-3.4375 6.25 -3.4375 6.25 -3.5625 3.75 C-3.39590427 0.41808548 -3.30551904 0.33902759 0 0 Z " fill="#F4F4F4" transform="translate(597.4375,392.75)"/>
<path d="M0 0 C1.2684375 0.12375 1.2684375 0.12375 2.5625 0.25 C4.5625 3.25 4.5625 3.25 4.1875 5.4375 C3.98125 6.035625 3.775 6.63375 3.5625 7.25 C1.56295254 7.29254356 -0.43791636 7.29080783 -2.4375 7.25 C-3.4375 6.25 -3.4375 6.25 -3.5625 3.75 C-3.39590427 0.41808548 -3.30551904 0.33902759 0 0 Z " fill="#F4F4F4" transform="translate(277.4375,392.75)"/>
<path d="M0 0 C1.2684375 0.12375 1.2684375 0.12375 2.5625 0.25 C4.5625 3.25 4.5625 3.25 4.1875 5.4375 C3.98125 6.035625 3.775 6.63375 3.5625 7.25 C1.56295254 7.29254356 -0.43791636 7.29080783 -2.4375 7.25 C-3.4375 6.25 -3.4375 6.25 -3.5625 3.75 C-3.39590427 0.41808548 -3.30551904 0.33902759 0 0 Z " fill="#F4F4F4" transform="translate(597.4375,72.75)"/>
<path d="M0 0 C1.2684375 0.12375 1.2684375 0.12375 2.5625 0.25 C4.5625 3.25 4.5625 3.25 4.1875 5.4375 C3.98125 6.035625 3.775 6.63375 3.5625 7.25 C1.56295254 7.29254356 -0.43791636 7.29080783 -2.4375 7.25 C-3.4375 6.25 -3.4375 6.25 -3.5625 3.75 C-3.39590427 0.41808548 -3.30551904 0.33902759 0 0 Z " fill="#F4F4F4" transform="translate(277.4375,72.75)"/>
<path d="M0 0 C0.55558594 0.22171875 1.11117188 0.4434375 1.68359375 0.671875 C1.35359375 1.331875 1.02359375 1.991875 0.68359375 2.671875 C-0.30640625 2.341875 -1.29640625 2.011875 -2.31640625 1.671875 C-1.86265625 2.125625 -1.40890625 2.579375 -0.94140625 3.046875 C0.26692708 4.25520833 1.47526042 5.46354167 2.68359375 6.671875 C1.69359375 7.001875 0.70359375 7.331875 -0.31640625 7.671875 C-0.74953125 7.1975 -1.18265625 6.723125 -1.62890625 6.234375 C-3.33950238 4.43500543 -3.33950238 4.43500543 -6.31640625 3.671875 C-5.98640625 4.661875 -5.65640625 5.651875 -5.31640625 6.671875 C-8.61640625 7.331875 -11.91640625 7.991875 -15.31640625 8.671875 C-12.70687246 6.06234121 -10.4820241 4.34440816 -7.37890625 2.421875 C-6.52425781 1.88046875 -5.66960937 1.3390625 -4.7890625 0.78125 C-2.31640625 -0.328125 -2.31640625 -0.328125 0 0 Z " fill="#E27853" transform="translate(286.31640625,216.328125)"/>
<path d="M0 0 C0.33 1.32 0.66 2.64 1 4 C0.34 4 -0.32 4 -1 4 C-1.0825 4.78375 -1.165 5.5675 -1.25 6.375 C-1.4975 7.24125 -1.745 8.1075 -2 9 C-2.639375 9.309375 -3.27875 9.61875 -3.9375 9.9375 C-6.35506453 10.89786814 -6.35506453 10.89786814 -7.25 14.125 C-7.4975 15.07375 -7.745 16.0225 -8 17 C-9.65 17.33 -11.3 17.66 -13 18 C-12.64808594 17.53851563 -12.29617188 17.07703125 -11.93359375 16.6015625 C-7.81655641 11.16234345 -3.88391248 5.60754228 0 0 Z " fill="#E2714A" transform="translate(332,389)"/>
<path d="M0 0 C0.72058594 0.03544922 1.44117188 0.07089844 2.18359375 0.10742188 C5.92218436 0.33807157 8.93399315 0.64091184 12.125 2.6875 C10.86042969 2.67009766 10.86042969 2.67009766 9.5703125 2.65234375 C8.47460938 2.64332031 7.37890625 2.63429688 6.25 2.625 C5.15945313 2.61339844 4.06890625 2.60179687 2.9453125 2.58984375 C0.17322454 2.49005697 0.17322454 2.49005697 -1.875 3.6875 C-3.91998425 3.59969597 -5.96244948 3.44508462 -8 3.25 C-9.09570312 3.14816406 -10.19140625 3.04632813 -11.3203125 2.94140625 C-12.58488281 2.81572266 -12.58488281 2.81572266 -13.875 2.6875 C-8.8306879 0.16534395 -5.66363522 -0.36588086 0 0 Z " fill="#E66C40" transform="translate(477.875,339.3125)"/>
<path d="M0 0 C0.33 0 0.66 0 1 0 C1.08333357 4.8333472 0.95261487 9.23692563 0 14 C0.99 14 1.98 14 3 14 C2.71890887 15.64767247 2.42481474 17.29313145 2.125 18.9375 C1.96257813 19.85402344 1.80015625 20.77054687 1.6328125 21.71484375 C1.31957031 22.84599609 1.31957031 22.84599609 1 24 C0.34 24.33 -0.32 24.66 -1 25 C-1.02718316 22.14576808 -1.04692705 19.29179985 -1.0625 16.4375 C-1.07087891 15.63763672 -1.07925781 14.83777344 -1.08789062 14.01367188 C-1.10742247 9.22836896 -0.80437018 4.71854949 0 0 Z " fill="#DC8360" transform="translate(567,335)"/>
<path d="M0 0 C0.33 0.66 0.66 1.32 1 2 C3.31 2 5.62 2 8 2 C4.61391522 3.91712153 1.28896405 4.73257783 -2.5 5.5625 C-4.18609375 5.93568359 -4.18609375 5.93568359 -5.90625 6.31640625 C-6.9271875 6.54199219 -7.948125 6.76757812 -9 7 C-10.33484892 7.32721134 -11.66900125 7.65746356 -13 8 C-13.33 6.68 -13.66 5.36 -14 4 C-12.96875 4.04125 -11.9375 4.0825 -10.875 4.125 C-7.10323875 4.00333028 -4.45089755 3.47895609 -1 2 C-0.67 1.34 -0.34 0.68 0 0 Z " fill="#E4754E" transform="translate(428,299)"/>
<path d="M0 0 C0.66 0.66 1.32 1.32 2 2 C2.33 1.34 2.66 0.68 3 0 C4.65 0 6.3 0 8 0 C6.74157232 3.77528304 5.37506571 4.10667045 2 6 C1.34 6.66 0.68 7.32 0 8 C-0.99 7.67 -1.98 7.34 -3 7 C-2.67 6.34 -2.34 5.68 -2 5 C-2.66 4.67 -3.32 4.34 -4 4 C-2.68 2.68 -1.36 1.36 0 0 Z " fill="#F25A20" transform="translate(301,271)"/>
<path d="M0 0 C0.90105469 0.19464844 1.80210937 0.38929688 2.73046875 0.58984375 C3.41753906 0.74582031 4.10460937 0.90179688 4.8125 1.0625 C1.64683427 3.17294382 -0.69947415 3.81802077 -4.375 4.6875 C-5.46167969 4.94789063 -6.54835938 5.20828125 -7.66796875 5.4765625 C-8.49941406 5.66992188 -9.33085937 5.86328125 -10.1875 6.0625 C-10.1875 5.4025 -10.1875 4.7425 -10.1875 4.0625 C-9.1975 4.0625 -8.2075 4.0625 -7.1875 4.0625 C-7.5175 2.7425 -7.8475 1.4225 -8.1875 0.0625 C-4.80475734 -1.06508089 -3.41971777 -0.75500262 0 0 Z " fill="#ED5F34" transform="translate(335.1875,216.9375)"/>
<path d="M0 0 C0.33 0.66 0.66 1.32 1 2 C0.01 2 -0.98 2 -2 2 C-2 2.66 -2 3.32 -2 4 C-2.99 4.66 -3.98 5.32 -5 6 C-5.33 6.99 -5.66 7.98 -6 9 C-6.99 9 -7.98 9 -9 9 C-9.1875 5.625 -9.1875 5.625 -9 2 C-5.5647952 -0.29013653 -4.014669 -0.17842973 0 0 Z " fill="#EDEDED" transform="translate(210,292)"/>
<path d="M0 0 C0 0.66 0 1.32 0 2 C0.99 2.33 1.98 2.66 3 3 C3 3.66 3 4.32 3 5 C-2.94 4.34 -8.88 3.68 -15 3 C-15 2.67 -15 2.34 -15 2 C-9.92523206 0.73694665 -5.27203646 -0.27036084 0 0 Z " fill="#E7734B" transform="translate(421,210)"/>
<path d="M0 0 C0.50789062 0.38671875 1.01578125 0.7734375 1.5390625 1.171875 C5.61331983 4.25427193 9.71647931 7.21571155 14 10 C10.98968256 10.93423645 10.13349732 11.04449911 7 10 C6.67 9.01 6.34 8.02 6 7 C5.34 6.67 4.68 6.34 4 6 C4 6.66 4 7.32 4 8 C2.68 7.34 1.36 6.68 0 6 C0 4.02 0 2.04 0 0 Z " fill="#E66131" transform="translate(250,407)"/>
<path d="M0 0 C0.99 0.33 1.98 0.66 3 1 C3 1.66 3 2.32 3 3 C3.99 3.33 4.98 3.66 6 4 C5.38592285 3.99476318 4.7718457 3.98952637 4.13916016 3.98413086 C1.30111759 3.96307871 -1.53690846 3.95025137 -4.375 3.9375 C-5.34050781 3.92912109 -6.30601562 3.92074219 -7.30078125 3.91210938 C-13.59824289 3.89097695 -19.74839863 4.23892802 -26 5 C-22.65725521 1.65725521 -18.88352245 1.94461158 -14.35546875 1.90234375 C-12.63278529 1.90894407 -10.91011517 1.92080052 -9.1875 1.9375 C-8.30384766 1.94201172 -7.42019531 1.94652344 -6.50976562 1.95117188 C-4.33981441 1.96290134 -2.16989828 1.98083505 0 2 C0 1.34 0 0.68 0 0 Z " fill="#E2683C" transform="translate(560,267)"/>
<path d="M0 0 C-0.99 0.33 -1.98 0.66 -3 1 C-2.01 1.66 -1.02 2.32 0 3 C-2.97 2.67 -5.94 2.34 -9 2 C-9 2.99 -9 3.98 -9 5 C-13.29 5 -17.58 5 -22 5 C-22 4.67 -22 4.34 -22 4 C-19.08644159 3.13372595 -16.16995672 2.28168994 -13.25 1.4375 C-12.425 1.19064453 -11.6 0.94378906 -10.75 0.68945312 C-9.95078125 0.46064453 -9.1515625 0.23183594 -8.328125 -0.00390625 C-7.5949707 -0.21861572 -6.86181641 -0.4333252 -6.10644531 -0.65454102 C-3.76130184 -1.03914672 -2.24174192 -0.72878764 0 0 Z " fill="#DF754D" transform="translate(515,258)"/>
<path d="M0 0 C0.87840996 3.09720845 0.99435406 4.90645403 0 8 C-1.32 8.33 -2.64 8.66 -4 9 C-4.0825 9.61875 -4.165 10.2375 -4.25 10.875 C-5 13 -5 13 -7.046875 14.1328125 C-7.69140625 14.41898437 -8.3359375 14.70515625 -9 15 C-6.41789374 9.54888679 -3.61861108 4.82481477 0 0 Z " fill="#DF7149" transform="translate(231,260)"/>
<path d="M0 0 C2.97 1.32 5.94 2.64 9 4 C9 4.99 9 5.98 9 7 C4.83861737 7.08159574 1.0527516 6.98248524 -3 6 C-3 5.67 -3 5.34 -3 5 C-1.35 5 0.3 5 2 5 C1.34 3.35 0.68 1.7 0 0 Z " fill="#E7602F" transform="translate(540,359)"/>
<path d="M0 0 C0.33 0 0.66 0 1 0 C1.79681084 8.02502344 2.12867289 15.93649887 2 24 C-2.77065617 16.84401574 -1.18195484 8.12593951 0 0 Z " fill="#E56533" transform="translate(276,336)"/>
<path d="M0 0 C0.73605469 0.05220703 1.47210937 0.10441406 2.23046875 0.15820312 C4.02910629 0.28667723 5.82712909 0.42370949 7.625 0.5625 C7.625 0.8925 7.625 1.2225 7.625 1.5625 C-0.295 1.8925 -8.215 2.2225 -16.375 2.5625 C-12.11799683 -1.69450317 -5.58452465 -0.43928901 0 0 Z " fill="#F85620" transform="translate(552.375,265.4375)"/>
<path d="M0 0 C0.66 0.33 1.32 0.66 2 1 C-1.28571429 7.57142857 -1.28571429 7.57142857 -4.5 9.5 C-7 10 -7 10 -11 9 C-7.37 6.03 -3.74 3.06 0 0 Z " fill="#E46B3F" transform="translate(262,230)"/>
<path d="M0 0 C1.125 5.75 1.125 5.75 0 8 C-2.92879371 7.37240135 -5.36095629 6.41377341 -8 5 C-5.81209839 1.71814759 -4.05191042 0 0 0 Z " fill="#F05A23" transform="translate(448,211)"/>
<path d="M0 0 C4.86443413 5.64902027 5.15231321 9.44058678 5.0625 16.75 C5.05798828 17.44738281 5.05347656 18.14476562 5.04882812 18.86328125 C5.0371002 20.57555803 5.01916653 22.28779033 5 24 C4.67 24 4.34 24 4 24 C3.67 20.7 3.34 17.4 3 14 C2.67 14 2.34 14 2 14 C2 10.7 2 7.4 2 4 C1.34 4 0.68 4 0 4 C0 2.68 0 1.36 0 0 Z " fill="#E1774E" transform="translate(590,266)"/>
<path d="M0 0 C0.99 0.33 1.98 0.66 3 1 C-0.3 3.64 -3.6 6.28 -7 9 C-8.32 8.01 -9.64 7.02 -11 6 C-9.54195831 5.18697675 -8.08355685 4.37459869 -6.625 3.5625 C-5.40683594 2.88380859 -5.40683594 2.88380859 -4.1640625 2.19140625 C-2.79003378 1.4349464 -1.40290739 0.70145369 0 0 Z " fill="#DF6B3F" transform="translate(413,318)"/>
<path d="M0 0 C-2.31 0 -4.62 0 -7 0 C-7 0.66 -7 1.32 -7 2 C-9.31 2 -11.62 2 -14 2 C-14.33 1.01 -14.66 0.02 -15 -1 C-9.92717163 -2.69094279 -4.49272587 -2.99515058 0 0 Z " fill="#EE5B27" transform="translate(443,299)"/>
<path d="M0 0 C0.33 0.66 0.66 1.32 1 2 C1.66 1.67 2.32 1.34 3 1 C4.99960012 0.960008 7.00047242 0.95653201 9 1 C8.67 1.99 8.34 2.98 8 4 C8.66 4.66 9.32 5.32 10 6 C5.28596212 5.52060632 1.33420699 5.03165952 -3 3 C-2.01 2.67 -1.02 2.34 0 2 C0 1.34 0 0.68 0 0 Z " fill="#E5734A" transform="translate(439,274)"/>
<path d="M0 0 C0.99 0 1.98 0 3 0 C3.66 1.32 4.32 2.64 5 4 C4.01 4 3.02 4 2 4 C2 4.99 2 5.98 2 7 C0.35 7 -1.3 7 -3 7 C-3 5.35 -3 3.7 -3 2 C-2.01 2 -1.02 2 0 2 C0 1.34 0 0.68 0 0 Z " fill="#F4F4F4" transform="translate(701,467)"/>
<path d="M0 0 C0.99 0 1.98 0 3 0 C3.66 1.32 4.32 2.64 5 4 C4.01 4 3.02 4 2 4 C2 4.99 2 5.98 2 7 C0.35 7 -1.3 7 -3 7 C-3 5.35 -3 3.7 -3 2 C-2.01 2 -1.02 2 0 2 C0 1.34 0 0.68 0 0 Z " fill="#F4F4F4" transform="translate(381,467)"/>
<path d="M0 0 C0.99 0 1.98 0 3 0 C3.66 1.32 4.32 2.64 5 4 C4.01 4 3.02 4 2 4 C2 4.99 2 5.98 2 7 C0.35 7 -1.3 7 -3 7 C-3 5.35 -3 3.7 -3 2 C-2.01 2 -1.02 2 0 2 C0 1.34 0 0.68 0 0 Z " fill="#F4F4F4" transform="translate(61,467)"/>
<path d="M0 0 C2.32217616 3.48326424 3.71673124 7.11024921 5.1875 11 C5.47302734 11.72445313 5.75855469 12.44890625 6.05273438 13.1953125 C8.11864075 18.64407774 8.11864075 18.64407774 7 22 C4.71536344 18.4388473 3.14809131 15.01189112 1.8125 11 C1.29623047 9.4840625 1.29623047 9.4840625 0.76953125 7.9375 C0.03651488 5.13938675 -0.15319894 2.87380074 0 0 Z " fill="#DD7047" transform="translate(211,378)"/>
<path d="M0 0 C0.66 0 1.32 0 2 0 C1.03644647 10.55808656 1.03644647 10.55808656 0 15 C-0.66 14.67 -1.32 14.34 -2 14 C-2.66 14.99 -3.32 15.98 -4 17 C-3.67 14.03 -3.34 11.06 -3 8 C-2.34 8 -1.68 8 -1 8 C-0.67 5.36 -0.34 2.72 0 0 Z " fill="#E47048" transform="translate(286,323)"/>
<path d="M0 0 C0.99 0 1.98 0 3 0 C3.66 1.32 4.32 2.64 5 4 C4.01 4 3.02 4 2 4 C2 4.99 2 5.98 2 7 C0.35 7 -1.3 7 -3 7 C-3 5.35 -3 3.7 -3 2 C-2.01 2 -1.02 2 0 2 C0 1.34 0 0.68 0 0 Z " fill="#F4F4F4" transform="translate(701,147)"/>
<path d="M0 0 C0.99 0 1.98 0 3 0 C3.66 1.32 4.32 2.64 5 4 C4.01 4 3.02 4 2 4 C2 4.99 2 5.98 2 7 C0.35 7 -1.3 7 -3 7 C-3 5.35 -3 3.7 -3 2 C-2.01 2 -1.02 2 0 2 C0 1.34 0 0.68 0 0 Z " fill="#F4F4F4" transform="translate(381,147)"/>
<path d="M0 0 C0.99 0 1.98 0 3 0 C3.66 1.32 4.32 2.64 5 4 C4.01 4 3.02 4 2 4 C2 4.99 2 5.98 2 7 C0.35 7 -1.3 7 -3 7 C-3 5.35 -3 3.7 -3 2 C-2.01 2 -1.02 2 0 2 C0 1.34 0 0.68 0 0 Z " fill="#F4F4F4" transform="translate(61,147)"/>
<path d="M0 0 C4.0077249 0.95422021 5.23171968 3.342787 7.625 6.625 C5.15699953 5.47326645 3.57716435 4.57716435 1.625 2.625 C0.635 2.625 -0.355 2.625 -1.375 2.625 C-0.84430939 6.44597239 0.12201566 8.68671403 2.625 11.625 C-1.1702131 10.13402342 -2.98542731 7.86799151 -5.375 4.625 C-3.80884094 1.98725843 -3.02246211 0.79538477 0 0 Z " fill="#E7E7E7" transform="translate(758.375,549.375)"/>
<path d="M0 0 C4.0077249 0.95422021 5.23171968 3.342787 7.625 6.625 C5.15699953 5.47326645 3.57716435 4.57716435 1.625 2.625 C0.635 2.625 -0.355 2.625 -1.375 2.625 C-0.84430939 6.44597239 0.12201566 8.68671403 2.625 11.625 C-1.1702131 10.13402342 -2.98542731 7.86799151 -5.375 4.625 C-3.80884094 1.98725843 -3.02246211 0.79538477 0 0 Z " fill="#E7E7E7" transform="translate(438.375,549.375)"/>
<path d="M0 0 C4.0077249 0.95422021 5.23171968 3.342787 7.625 6.625 C5.15699953 5.47326645 3.57716435 4.57716435 1.625 2.625 C0.635 2.625 -0.355 2.625 -1.375 2.625 C-0.84430939 6.44597239 0.12201566 8.68671403 2.625 11.625 C-1.1702131 10.13402342 -2.98542731 7.86799151 -5.375 4.625 C-3.80884094 1.98725843 -3.02246211 0.79538477 0 0 Z " fill="#E7E7E7" transform="translate(118.375,549.375)"/>
<path d="M0 0 C2.96175123 0.61277612 4.38058783 1.25372522 7 3 C5.0429132 3.67031719 3.08428887 4.33614683 1.125 5 C0.03445313 5.37125 -1.05609375 5.7425 -2.1796875 6.125 C-5 7 -5 7 -7 7 C-6 4 -6 4 -4 2 C-0.875 2.375 -0.875 2.375 2 3 C2 2.34 2 1.68 2 1 C1.34 0.67 0.68 0.34 0 0 Z " fill="#E36638" transform="translate(420,353)"/>
<path d="M0 0 C0.33 0 0.66 0 1 0 C1.24954005 1.43410368 1.47392642 2.87260072 1.6875 4.3125 C1.81511719 5.11300781 1.94273437 5.91351563 2.07421875 6.73828125 C2 9 2 9 0.5625 10.65625 C0.046875 11.0996875 -0.46875 11.543125 -1 12 C-1.71447643 14.10332891 -1.71447643 14.10332891 -2 16 C-2.66 16 -3.32 16 -4 16 C-3.31092878 12.34056353 -2.43178734 8.77558041 -1.4375 5.1875 C-1.16808594 4.21167969 -0.89867187 3.23585938 -0.62109375 2.23046875 C-0.41613281 1.49441406 -0.21117187 0.75835937 0 0 Z " fill="#DF6B42" transform="translate(213,292)"/>
<path d="M0 0 C4.74018901 1.83491188 9.36413251 3.91941459 14 6 C10.02623171 7.56393356 7.18622097 6.36145292 3.25 5.0625 C2.07953125 4.68222656 0.9090625 4.30195313 -0.296875 3.91015625 C-1.18890625 3.60980469 -2.0809375 3.30945313 -3 3 C-2.01 2.01 -1.02 1.02 0 0 Z " fill="#DC8161" transform="translate(500,233)"/>
<path d="M0 0 C4.0077249 0.95422021 5.23171968 3.342787 7.625 6.625 C5.15699953 5.47326645 3.57716435 4.57716435 1.625 2.625 C0.635 2.625 -0.355 2.625 -1.375 2.625 C-0.84430939 6.44597239 0.12201566 8.68671403 2.625 11.625 C-1.1702131 10.13402342 -2.98542731 7.86799151 -5.375 4.625 C-3.80884094 1.98725843 -3.02246211 0.79538477 0 0 Z " fill="#E7E7E7" transform="translate(758.375,229.375)"/>
<path d="M0 0 C4.0077249 0.95422021 5.23171968 3.342787 7.625 6.625 C5.15699953 5.47326645 3.57716435 4.57716435 1.625 2.625 C0.635 2.625 -0.355 2.625 -1.375 2.625 C-0.84430939 6.44597239 0.12201566 8.68671403 2.625 11.625 C-1.1702131 10.13402342 -2.98542731 7.86799151 -5.375 4.625 C-3.80884094 1.98725843 -3.02246211 0.79538477 0 0 Z " fill="#E7E7E7" transform="translate(438.375,229.375)"/>
<path d="M0 0 C4.0077249 0.95422021 5.23171968 3.342787 7.625 6.625 C5.15699953 5.47326645 3.57716435 4.57716435 1.625 2.625 C0.635 2.625 -0.355 2.625 -1.375 2.625 C-0.84430939 6.44597239 0.12201566 8.68671403 2.625 11.625 C-1.1702131 10.13402342 -2.98542731 7.86799151 -5.375 4.625 C-3.80884094 1.98725843 -3.02246211 0.79538477 0 0 Z " fill="#E7E7E7" transform="translate(118.375,229.375)"/>
<path d="M0 0 C1.11375 0.3403125 1.11375 0.3403125 2.25 0.6875 C1.92 1.3475 1.59 2.0075 1.25 2.6875 C-0.4 2.6875 -2.05 2.6875 -3.75 2.6875 C-4.74 4.6675 -5.73 6.6475 -6.75 8.6875 C-7.41 8.6875 -8.07 8.6875 -8.75 8.6875 C-9.08 9.3475 -9.41 10.0075 -9.75 10.6875 C-10.41 10.0275 -11.07 9.3675 -11.75 8.6875 C-11.29625 8.254375 -10.8425 7.82125 -10.375 7.375 C-8.54975666 5.57951658 -8.54975666 5.57951658 -6.75 2.6875 C-4.28817463 0.31056516 -3.46906556 -0.394212 0 0 Z " fill="#E4DAD7" transform="translate(294.75,375.3125)"/>
<path d="M0 0 C0.66 0.99 1.32 1.98 2 3 C1.34 3 0.68 3 0 3 C0 4.98 0 6.96 0 9 C-0.99 9.33 -1.98 9.66 -3 10 C-3.12375 10.763125 -3.2475 11.52625 -3.375 12.3125 C-4 15 -4 15 -6 18 C-5.55397709 11.30965634 -2.92654458 5.97187878 0 0 Z " fill="#E07D58" transform="translate(283,293)"/>
<path d="M0 0 C0.66 0 1.32 0 2 0 C2 0.66 2 1.32 2 2 C3.32 2.33 4.64 2.66 6 3 C5.01 5.31 4.02 7.62 3 10 C1.00902154 7.01353231 0.05875074 4.40312738 -1 1 C-0.67 0.67 -0.34 0.34 0 0 Z " fill="#E76231" transform="translate(234,291)"/>
<path d="M0 0 C0 0.99 0 1.98 0 3 C-0.33 3.33 -0.66 3.66 -1 4 C-0.34 4.33 0.32 4.66 1 5 C1 5.66 1 6.32 1 7 C-2.80504787 8.79682816 -3.70600835 9.07349791 -8 8 C-5.36 5.36 -2.72 2.72 0 0 Z " fill="#E66233" transform="translate(250,240)"/>
<path d="M0 0 C2.97 0.99 5.94 1.98 9 3 C5.25 6 5.25 6 3 6 C3 6.66 3 7.32 3 8 C0.69 7.67 -1.62 7.34 -4 7 C-4 6.67 -4 6.34 -4 6 C-1.69 5.34 0.62 4.68 3 4 C2.01 3.34 1.02 2.68 0 2 C0 1.34 0 0.68 0 0 Z " fill="#E1754B" transform="translate(469,219)"/>
<path d="M0 0 C5.50808397 0.59015185 10.64878069 1.56663769 16 3 C16 3.33 16 3.66 16 4 C12.7 4.33 9.4 4.66 6 5 C6 4.01 6 3.02 6 2 C4.35 2 2.7 2 1 2 C0.67 1.34 0.34 0.68 0 0 Z " fill="#E27048" transform="translate(490,342)"/>
<path d="M0 0 C0.33 0 0.66 0 1 0 C1 2.64 1 5.28 1 8 C1.66 8 2.32 8 3 8 C3 9.65 3 11.3 3 13 C2.01 13 1.02 13 0 13 C-0.98248196 8.94726192 -1.16017882 5.16464926 -1 1 C-0.67 0.67 -0.34 0.34 0 0 Z " fill="#EF5C1B" transform="translate(278,315)"/>
<path d="M0 0 C6.15234375 -0.09765625 6.15234375 -0.09765625 8 0 C8.33 0.33 8.66 0.66 9 1 C10.918125 1.185625 10.918125 1.185625 12.875 1.375 C15.66720951 1.68024154 16.74292999 1.79916406 19 3.5625 C19.33 4.036875 19.66 4.51125 20 5 C15.50593041 4.28786282 11.07140387 3.40228575 6.625 2.4375 C5.37976563 2.16808594 4.13453125 1.89867187 2.8515625 1.62109375 C1.44003906 1.31365234 1.44003906 1.31365234 0 1 C0 0.67 0 0.34 0 0 Z " fill="#E07F5E" transform="translate(517,360)"/>
<path d="M0 0 C0.66 0 1.32 0 2 0 C2.33 0.99 2.66 1.98 3 3 C2.34 3 1.68 3 1 3 C0.34 4.98 -0.32 6.96 -1 9 C-2.32 9 -3.64 9 -5 9 C-4.67 7.35 -4.34 5.7 -4 4 C-3.34 4 -2.68 4 -2 4 C-1.34 2.68 -0.68 1.36 0 0 Z " fill="#F05A23" transform="translate(316,258)"/>
<path d="M0 0 C3.86848614 1.11756266 6.28922757 2.02873292 9 5 C7.56163249 4.88541307 6.12429034 4.75790884 4.6875 4.625 C3.88699219 4.55539063 3.08648437 4.48578125 2.26171875 4.4140625 C0 4 0 4 -3 2 C-2.01 2 -1.02 2 0 2 C0 1.34 0 0.68 0 0 Z " fill="#E1663B" transform="translate(492,230)"/>
<path d="M0 0 C1.32 0.66 2.64 1.32 4 2 C2 3 2 3 -1 3 C-0.46930939 6.82097239 0.49701566 9.06171403 3 12 C-0.7952131 10.50902342 -2.61042731 8.24299151 -5 5 C-3.35 3.35 -1.7 1.7 0 0 Z " fill="#E7E7E7" transform="translate(588,399)"/>
<path d="M0 0 C1.32 0.66 2.64 1.32 4 2 C2 3 2 3 -1 3 C-0.46930939 6.82097239 0.49701566 9.06171403 3 12 C-0.7952131 10.50902342 -2.61042731 8.24299151 -5 5 C-3.35 3.35 -1.7 1.7 0 0 Z " fill="#E7E7E7" transform="translate(268,399)"/>
<path d="M0 0 C0.99 0 1.98 0 3 0 C2.731875 0.639375 2.46375 1.27875 2.1875 1.9375 C0.64635858 5.91202261 -0.67609312 9.94884495 -2 14 C-2.33 14 -2.66 14 -3 14 C-4.35714286 7.58441558 -4.35714286 7.58441558 -2.625 4.75 C-1.820625 3.88375 -1.820625 3.88375 -1 3 C-0.67 2.01 -0.34 1.02 0 0 Z " fill="#E36B3E" transform="translate(294,296)"/>
<path d="M0 0 C-0.95421808 1.14926266 -1.91352045 2.29430541 -2.875 3.4375 C-3.40867187 4.07558594 -3.94234375 4.71367187 -4.4921875 5.37109375 C-6 7 -6 7 -8 8 C-7.74438677 5.6568787 -7.40729228 3.32156597 -7 1 C-4.53721199 -0.231394 -2.7204945 -0.07159196 0 0 Z " fill="#E5693D" transform="translate(323,259)"/>
<path d="M0 0 C2.68844453 2.25482445 3.89807437 3.66704294 4.9375 7.0625 C5 10 5 10 3.8125 11.9375 C2 13 2 13 -0.1875 12.6875 C-0.785625 12.460625 -1.38375 12.23375 -2 12 C-0.35 11.01 1.3 10.02 3 9 C1.93798263 6.77260299 1.93798263 6.77260299 0 4 C-0.33 3.01 -0.66 2.02 -1 1 C-0.67 0.67 -0.34 0.34 0 0 Z " fill="#F16331" transform="translate(281,222)"/>
<path d="M0 0 C1.32 0.66 2.64 1.32 4 2 C2 3 2 3 -1 3 C-0.46930939 6.82097239 0.49701566 9.06171403 3 12 C-0.7952131 10.50902342 -2.61042731 8.24299151 -5 5 C-3.35 3.35 -1.7 1.7 0 0 Z " fill="#E7E7E7" transform="translate(588,79)"/>
<path d="M0 0 C1.32 0.66 2.64 1.32 4 2 C2 3 2 3 -1 3 C-0.46930939 6.82097239 0.49701566 9.06171403 3 12 C-0.7952131 10.50902342 -2.61042731 8.24299151 -5 5 C-3.35 3.35 -1.7 1.7 0 0 Z " fill="#E7E7E7" transform="translate(268,79)"/>
<path d="M0 0 C3.21043882 1.38188453 5.04936365 2.92421903 7.25 5.625 C7.77078125 6.25664062 8.2915625 6.88828125 8.828125 7.5390625 C9.40820312 8.26222656 9.40820312 8.26222656 10 9 C7.53199953 7.84826645 5.95216435 6.95216435 4 5 C1.41645782 4.83312552 1.41645782 4.83312552 -1 5 C-1.33 4.01 -1.66 3.02 -2 2 C-1.34 1.34 -0.68 0.68 0 0 Z " fill="#EA6939" transform="translate(266,227)"/>
<path d="M0 0 C0.33 1.32 0.66 2.64 1 4 C-0.24176695 4.70226141 -1.49385599 5.38629109 -2.75 6.0625 C-3.79414063 6.63677734 -3.79414063 6.63677734 -4.859375 7.22265625 C-7.36140628 8.1312406 -8.5332355 7.88336837 -11 7 C-10.37351562 6.66226562 -9.74703125 6.32453125 -9.1015625 5.9765625 C-8.28429687 5.53054688 -7.46703125 5.08453125 -6.625 4.625 C-5.40683594 3.96371094 -5.40683594 3.96371094 -4.1640625 3.2890625 C-1.89185698 2.0556107 -1.89185698 2.0556107 0 0 Z " fill="#E1714B" transform="translate(313,412)"/>
<path d="M0 0 C1.65 0 3.3 0 5 0 C2.03 3.96 2.03 3.96 -1 8 C-1.66 6.68 -2.32 5.36 -3 4 C-1.8125 2 -1.8125 2 0 0 Z " fill="#E66434" transform="translate(256,263)"/>
<path d="M0 0 C0.99 0 1.98 0 3 0 C2.875 1.75 2.875 1.75 2 4 C-1.0625 6.25 -1.0625 6.25 -4 8 C-4.33 6.68 -4.66 5.36 -5 4 C-4.01 3.67 -3.02 3.34 -2 3 C-1.34 3.33 -0.68 3.66 0 4 C0 2.68 0 1.36 0 0 Z " fill="#EA6334" transform="translate(268,252)"/>
<path d="M0 0 C0.33 0 0.66 0 1 0 C1.66 5.61 2.32 11.22 3 17 C0 14 0 14 -0.29296875 10.64453125 C-0.25816406 9.37996094 -0.22335938 8.11539062 -0.1875 6.8125 C-0.16042969 5.54019531 -0.13335937 4.26789063 -0.10546875 2.95703125 C-0.07066406 1.98121094 -0.03585938 1.00539063 0 0 Z " fill="#E27950" transform="translate(229,354)"/>
<path d="M0 0 C1.32 0.66 2.64 1.32 4 2 C2.35 4.64 0.7 7.28 -1 10 C-1.66 9.01 -2.32 8.02 -3 7 C-2.34 7 -1.68 7 -1 7 C-1.33 5.35 -1.66 3.7 -2 2 C-1.34 2 -0.68 2 0 2 C0 1.34 0 0.68 0 0 Z " fill="#E36534" transform="translate(243,280)"/>
<path d="M0 0 C0.66 0.33 1.32 0.66 2 1 C-2.625 4 -2.625 4 -6 4 C-6 4.66 -6 5.32 -6 6 C-5.34 6.33 -4.68 6.66 -4 7 C-6.97 6.505 -6.97 6.505 -10 6 C-7.31100548 2.67830089 -3.94687492 1.43522725 0 0 Z " fill="#E07C55" transform="translate(414,344)"/>
<path d="M0 0 C1.29409592 0.45142881 2.58521059 0.91141021 3.875 1.375 C4.95394531 1.75785156 4.95394531 1.75785156 6.0546875 2.1484375 C8 3 8 3 10 5 C6.7 4.67 3.4 4.34 0 4 C0 2.68 0 1.36 0 0 Z " fill="#E6693F" transform="translate(478,223)"/>
<path d="M0 0 C0 3.64478912 -0.85802506 5.09303401 -3 8 C-5.1875 8.8125 -5.1875 8.8125 -7 9 C-5.03681826 5.46627288 -2.95929119 2.75520215 0 0 Z " fill="#E17044" transform="translate(372,324)"/>
<path d="M0 0 C1.32 0.33 2.64 0.66 4 1 C2.25 6.75 2.25 6.75 0 9 C0 6.03 0 3.06 0 0 Z " fill="#E26A3C" transform="translate(589,296)"/>
<path d="M0 0 C0.33 0 0.66 0 1 0 C1 1.65 1 3.3 1 5 C1.66 5.33 2.32 5.66 3 6 C1.68 7.32 0.36 8.64 -1 10 C-2.25 3.375 -2.25 3.375 0 0 Z " fill="#EA6030" transform="translate(251,266)"/>
<path d="M0 0 C-2.31 1.65 -4.62 3.3 -7 5 C-7 4.34 -7 3.68 -7 3 C-7.99 2.67 -8.98 2.34 -10 2 C-4.5 -1.125 -4.5 -1.125 0 0 Z " fill="#DB8162" transform="translate(332,251)"/>
<path d="M0 0 C1.32 0 2.64 0 4 0 C2.63016497 3.16115776 2.0109362 3.9927092 -1 6 C-1.625 4.125 -1.625 4.125 -2 2 C-1.34 1.34 -0.68 0.68 0 0 Z " fill="#F2F2F2" transform="translate(781,527)"/>
<path d="M0 0 C1.32 0 2.64 0 4 0 C2.63016497 3.16115776 2.0109362 3.9927092 -1 6 C-1.625 4.125 -1.625 4.125 -2 2 C-1.34 1.34 -0.68 0.68 0 0 Z " fill="#F2F2F2" transform="translate(461,527)"/>
<path d="M0 0 C1.32 0 2.64 0 4 0 C2.63016497 3.16115776 2.0109362 3.9927092 -1 6 C-1.625 4.125 -1.625 4.125 -2 2 C-1.34 1.34 -0.68 0.68 0 0 Z " fill="#F2F2F2" transform="translate(141,527)"/>
<path d="M0 0 C2.0625 0.4375 2.0625 0.4375 4 1 C2.71937515 2.7074998 1.38232443 4.37373596 0 6 C-0.66 6 -1.32 6 -2 6 C-1.125 1.125 -1.125 1.125 0 0 Z " fill="#F2F2F2" transform="translate(790,518)"/>
<path d="M0 0 C2.0625 0.4375 2.0625 0.4375 4 1 C2.71937515 2.7074998 1.38232443 4.37373596 0 6 C-0.66 6 -1.32 6 -2 6 C-1.125 1.125 -1.125 1.125 0 0 Z " fill="#F2F2F2" transform="translate(470,518)"/>
<path d="M0 0 C2.0625 0.4375 2.0625 0.4375 4 1 C2.71937515 2.7074998 1.38232443 4.37373596 0 6 C-0.66 6 -1.32 6 -2 6 C-1.125 1.125 -1.125 1.125 0 0 Z " fill="#F2F2F2" transform="translate(150,518)"/>
<path d="M0 0 C2.97 0.99 5.94 1.98 9 3 C5 5 5 5 1 5 C0.67 3.35 0.34 1.7 0 0 Z " fill="#E07145" transform="translate(519,350)"/>
<path d="M0 0 C7.625 1.75 7.625 1.75 11 4 C8.36 4.33 5.72 4.66 3 5 C3 4.34 3 3.68 3 3 C2.01 2.67 1.02 2.34 0 2 C0 1.34 0 0.68 0 0 Z " fill="#E27751" transform="translate(507,346)"/>
<path d="M0 0 C2.97 0.495 2.97 0.495 6 1 C5 3 4 5 3 7 C2.01 6.34 1.02 5.68 0 5 C-0.1875 2.375 -0.1875 2.375 0 0 Z " fill="#F45822" transform="translate(396,308)"/>
<path d="M0 0 C1.32 0 2.64 0 4 0 C2.63016497 3.16115776 2.0109362 3.9927092 -1 6 C-1.625 4.125 -1.625 4.125 -2 2 C-1.34 1.34 -0.68 0.68 0 0 Z " fill="#F2F2F2" transform="translate(781,207)"/>
<path d="M0 0 C1.32 0 2.64 0 4 0 C2.63016497 3.16115776 2.0109362 3.9927092 -1 6 C-1.625 4.125 -1.625 4.125 -2 2 C-1.34 1.34 -0.68 0.68 0 0 Z " fill="#F2F2F2" transform="translate(461,207)"/>
<path d="M0 0 C1.32 0 2.64 0 4 0 C2.63016497 3.16115776 2.0109362 3.9927092 -1 6 C-1.625 4.125 -1.625 4.125 -2 2 C-1.34 1.34 -0.68 0.68 0 0 Z " fill="#F2F2F2" transform="translate(141,207)"/>
<path d="M0 0 C2.0625 0.4375 2.0625 0.4375 4 1 C2.71937515 2.7074998 1.38232443 4.37373596 0 6 C-0.66 6 -1.32 6 -2 6 C-1.125 1.125 -1.125 1.125 0 0 Z " fill="#F2F2F2" transform="translate(790,198)"/>
<path d="M0 0 C2.0625 0.4375 2.0625 0.4375 4 1 C2.71937515 2.7074998 1.38232443 4.37373596 0 6 C-0.66 6 -1.32 6 -2 6 C-1.125 1.125 -1.125 1.125 0 0 Z " fill="#F2F2F2" transform="translate(470,198)"/>
<path d="M0 0 C2.0625 0.4375 2.0625 0.4375 4 1 C2.71937515 2.7074998 1.38232443 4.37373596 0 6 C-0.66 6 -1.32 6 -2 6 C-1.125 1.125 -1.125 1.125 0 0 Z " fill="#F2F2F2" transform="translate(150,198)"/>
<path d="M0 0 C2.625 -0.1875 2.625 -0.1875 5 0 C3.35 1.98 1.7 3.96 0 6 C-0.66 5.01 -1.32 4.02 -2 3 C-1.34 2.01 -0.68 1.02 0 0 Z " fill="#F2F2F2" transform="translate(611,377)"/>
<path d="M0 0 C2.625 -0.1875 2.625 -0.1875 5 0 C3.35 1.98 1.7 3.96 0 6 C-0.66 5.01 -1.32 4.02 -2 3 C-1.34 2.01 -0.68 1.02 0 0 Z " fill="#F2F2F2" transform="translate(291,377)"/>
<path d="M0 0 C0.66 0 1.32 0 2 0 C2.66 1.98 3.32 3.96 4 6 C4.66 6 5.32 6 6 6 C6 6.66 6 7.32 6 8 C5.34 8 4.68 8 4 8 C3.67 8.66 3.34 9.32 3 10 C0 3.375 0 3.375 0 0 Z " fill="#E26B42" transform="translate(278,362)"/>
<path d="M0 0 C0.99 0.33 1.98 0.66 3 1 C1.02 3.31 -0.96 5.62 -3 8 C-3.66 6.68 -4.32 5.36 -5 4 C-4.34 4 -3.68 4 -3 4 C-3 3.34 -3 2.68 -3 2 C-2.01 2 -1.02 2 0 2 C0 1.34 0 0.68 0 0 Z " fill="#E56941" transform="translate(381,328)"/>
<path d="M0 0 C1.98 0.495 1.98 0.495 4 1 C3.67 1.66 3.34 2.32 3 3 C2.01 2.67 1.02 2.34 0 2 C0.45375 2.45375 0.9075 2.9075 1.375 3.375 C2.58333333 4.58333333 3.79166667 5.79166667 5 7 C4.01 7.33 3.02 7.66 2 8 C0.4375 6.8125 0.4375 6.8125 -1 5 C-0.6875 2.3125 -0.6875 2.3125 0 0 Z " fill="#E96D3E" transform="translate(284,216)"/>
<path d="M0 0 C0.99 0 1.98 0 3 0 C3.66 1.98 4.32 3.96 5 6 C3.125 5.75 3.125 5.75 1 5 C-0.25 2.9375 -0.25 2.9375 -1 1 C-0.67 0.67 -0.34 0.34 0 0 Z " fill="#F15723" transform="translate(453,215)"/>
<path d="M0 0 C1.52519276 0.08937803 3.04681929 0.24537146 4.5625 0.4375 C5.80193359 0.59025391 5.80193359 0.59025391 7.06640625 0.74609375 C7.70449219 0.82988281 8.34257812 0.91367188 9 1 C6.08235 2.9451 4.37462715 3.45276317 1 4 C0.34 3.01 -0.32 2.02 -1 1 C-0.67 0.67 -0.34 0.34 0 0 Z " fill="#E47141" transform="translate(331,217)"/>
<path d="M0 0 C2.625 -0.1875 2.625 -0.1875 5 0 C3.35 1.98 1.7 3.96 0 6 C-0.66 5.01 -1.32 4.02 -2 3 C-1.34 2.01 -0.68 1.02 0 0 Z " fill="#F2F2F2" transform="translate(611,57)"/>
<path d="M0 0 C2.625 -0.1875 2.625 -0.1875 5 0 C3.35 1.98 1.7 3.96 0 6 C-0.66 5.01 -1.32 4.02 -2 3 C-1.34 2.01 -0.68 1.02 0 0 Z " fill="#F2F2F2" transform="translate(291,57)"/>
<path d="M0 0 C-4.00200378 1.60080151 -7.04556236 0.29279692 -11 -1 C-11 -1.33 -11 -1.66 -11 -2 C-6.38619749 -3.49270081 -4.10342037 -2.38570952 0 0 Z " fill="#D98E77" transform="translate(563,371)"/>
<path d="M0 0 C1.4783226 2.95664519 1.06032783 5.74229737 1 9 C0.01 9 -0.98 9 -2 9 C-2.25 3.375 -2.25 3.375 0 0 Z " fill="#F05926" transform="translate(569,340)"/>
<path d="M0 0 C-2.52956528 3.0916909 -5.22454612 3.90931332 -9 5 C-9 4.01 -9 3.02 -9 2 C-3.375 -1.125 -3.375 -1.125 0 0 Z " fill="#F6581E" transform="translate(393,317)"/>
<path d="M0 0 C0 0.66 0 1.32 0 2 C0.66 2.33 1.32 2.66 2 3 C0.02 3.99 -1.96 4.98 -4 6 C-4.33 5.01 -4.66 4.02 -5 3 C-2.25 0 -2.25 0 0 0 Z " fill="#E46434" transform="translate(404,309)"/>
<path d="M0 0 C0.598125 0.350625 1.19625 0.70125 1.8125 1.0625 C-2.9375 4.0625 -2.9375 4.0625 -5.1875 4.0625 C-5.1875 2.7425 -5.1875 1.4225 -5.1875 0.0625 C-2.1875 -0.9375 -2.1875 -0.9375 0 0 Z " fill="#E66536" transform="translate(298.1875,233.9375)"/>
<path d="M0 0 C0.33 0 0.66 0 1 0 C1 1.65 1 3.3 1 5 C-0.65 5.33 -2.3 5.66 -4 6 C-2.84826645 3.53199953 -1.95216435 1.95216435 0 0 Z " fill="#F4F4F4" transform="translate(616,379)"/>
<path d="M0 0 C0.33 0 0.66 0 1 0 C1 1.65 1 3.3 1 5 C-0.65 5.33 -2.3 5.66 -4 6 C-2.84826645 3.53199953 -1.95216435 1.95216435 0 0 Z " fill="#F4F4F4" transform="translate(296,379)"/>
<path d="M0 0 C1.4606285 2.64738916 2 3.89448334 2 7 C0.35 7.33 -1.3 7.66 -3 8 C-1.125 2.25 -1.125 2.25 0 0 Z " fill="#E1754A" transform="translate(221,275)"/>
<path d="M0 0 C0.93423645 3.01031744 1.04449911 3.86650268 0 7 C-3 7 -3 7 -5 6 C-3.35 4.02 -1.7 2.04 0 0 Z " fill="#E06C3C" transform="translate(298,272)"/>
<path d="M0 0 C0.33 0 0.66 0 1 0 C1 1.65 1 3.3 1 5 C-0.65 5.33 -2.3 5.66 -4 6 C-2.84826645 3.53199953 -1.95216435 1.95216435 0 0 Z " fill="#F4F4F4" transform="translate(616,59)"/>
<path d="M0 0 C0.33 0 0.66 0 1 0 C1 1.65 1 3.3 1 5 C-0.65 5.33 -2.3 5.66 -4 6 C-2.84826645 3.53199953 -1.95216435 1.95216435 0 0 Z " fill="#F4F4F4" transform="translate(296,59)"/>
<path d="M0 0 C0.2475 0.556875 0.495 1.11375 0.75 1.6875 C2.21606015 4.39971127 4.02989471 6.63587365 6 9 C2.2047869 7.50902342 0.38957269 5.24299151 -2 2 C-1.34 1.34 -0.68 0.68 0 0 Z " fill="#E7E7E7" transform="translate(775,532)"/>
<path d="M0 0 C0.2475 0.556875 0.495 1.11375 0.75 1.6875 C2.21606015 4.39971127 4.02989471 6.63587365 6 9 C2.2047869 7.50902342 0.38957269 5.24299151 -2 2 C-1.34 1.34 -0.68 0.68 0 0 Z " fill="#E7E7E7" transform="translate(455,532)"/>
<path d="M0 0 C0.2475 0.556875 0.495 1.11375 0.75 1.6875 C2.21606015 4.39971127 4.02989471 6.63587365 6 9 C2.2047869 7.50902342 0.38957269 5.24299151 -2 2 C-1.34 1.34 -0.68 0.68 0 0 Z " fill="#E7E7E7" transform="translate(135,532)"/>
<path d="M0 0 C2.64 1.65 5.28 3.3 8 5 C4 6 4 6 1 5 C0.67 3.35 0.34 1.7 0 0 Z " fill="#DD653E" transform="translate(256,412)"/>
<path d="M0 0 C0.66 0.33 1.32 0.66 2 1 C0.515 4.465 0.515 4.465 -1 8 C-2.0625 6.125 -2.0625 6.125 -3 4 C-2.67 3.34 -2.34 2.68 -2 2 C-1.34 2 -0.68 2 0 2 C0 1.34 0 0.68 0 0 Z " fill="#E46C42" transform="translate(359,366)"/>
<path d="M0 0 C0.66 0.33 1.32 0.66 2 1 C0.515 4.96 0.515 4.96 -1 9 C-2.38111722 6.7252187 -3.05694702 5.49828639 -2.75 2.8125 C-2 1 -2 1 0 0 Z " fill="#E26A39" transform="translate(363,357)"/>
<path d="M0 0 C0.66 0 1.32 0 2 0 C0.7508258 3.45925163 -0.67527795 6.14693203 -3 9 C-3.33 7.35 -3.66 5.7 -4 4 C-3.01 4 -2.02 4 -1 4 C-0.67 2.68 -0.34 1.36 0 0 Z " fill="#E06B3F" transform="translate(301,284)"/>
<path d="M0 0 C0 0.99 0 1.98 0 3 C-4.29 3 -8.58 3 -13 3 C-13 2.67 -13 2.34 -13 2 C-11.20873548 1.66451233 -9.41697413 1.33167645 -7.625 1 C-6.62726563 0.814375 -5.62953125 0.62875 -4.6015625 0.4375 C-2 0 -2 0 0 0 Z " fill="#E36C41" transform="translate(506,260)"/>
<path d="M0 0 C1.98 0 3.96 0 6 0 C4.3545622 1.68762851 2.68711423 3.3540349 1 5 C0.67 5 0.34 5 0 5 C0 3.35 0 1.7 0 0 Z " fill="#E46A39" transform="translate(282,241)"/>
<path d="M0 0 C0.2475 0.556875 0.495 1.11375 0.75 1.6875 C2.21606015 4.39971127 4.02989471 6.63587365 6 9 C2.2047869 7.50902342 0.38957269 5.24299151 -2 2 C-1.34 1.34 -0.68 0.68 0 0 Z " fill="#F26331" transform="translate(265,232)"/>
<path d="M0 0 C0.99 0.33 1.98 0.66 3 1 C3 1.99 3 2.98 3 4 C4.32 4.33 5.64 4.66 7 5 C6.01 5.495 6.01 5.495 5 6 C2.64018187 5.06421005 0.30368736 4.06652192 -2 3 C-1.34 2.67 -0.68 2.34 0 2 C0 1.34 0 0.68 0 0 Z " fill="#E16431" transform="translate(458,219)"/>
<path d="M0 0 C0.2475 0.556875 0.495 1.11375 0.75 1.6875 C2.21606015 4.39971127 4.02989471 6.63587365 6 9 C2.2047869 7.50902342 0.38957269 5.24299151 -2 2 C-1.34 1.34 -0.68 0.68 0 0 Z " fill="#E7E7E7" transform="translate(775,212)"/>
<path d="M0 0 C0.2475 0.556875 0.495 1.11375 0.75 1.6875 C2.21606015 4.39971127 4.02989471 6.63587365 6 9 C2.2047869 7.50902342 0.38957269 5.24299151 -2 2 C-1.34 1.34 -0.68 0.68 0 0 Z " fill="#E7E7E7" transform="translate(135,212)"/>
<path d="M0 0 C1.5625 1.1875 1.5625 1.1875 3 3 C2.6875 5.6875 2.6875 5.6875 2 8 C1.34 8 0.68 8 0 8 C-0.79953138 4.71303767 -1.09658936 3.28976808 0 0 Z " fill="#EDEDED" transform="translate(617,375)"/>
<path d="M0 0 C1.5625 1.1875 1.5625 1.1875 3 3 C2.6875 5.6875 2.6875 5.6875 2 8 C1.34 8 0.68 8 0 8 C-0.79953138 4.71303767 -1.09658936 3.28976808 0 0 Z " fill="#EDEDED" transform="translate(297,375)"/>
<path d="M0 0 C-1.98 1.32 -3.96 2.64 -6 4 C-6.99 3.34 -7.98 2.68 -9 2 C-3.375 -1.125 -3.375 -1.125 0 0 Z " fill="#D7856B" transform="translate(416,319)"/>
<path d="M0 0 C0.98120464 3.05263664 0.98120464 4.94736336 0 8 C-1.32 8.33 -2.64 8.66 -4 9 C-3.34 8.01 -2.68 7.02 -2 6 C-1.64386903 4.33805547 -1.30791692 2.671549 -1 1 C-0.67 0.67 -0.34 0.34 0 0 Z " fill="#E26A3A" transform="translate(231,260)"/>
<path d="M0 0 C0.66 0 1.32 0 2 0 C1.67 3.3 1.34 6.6 1 10 C0.67 10 0.34 10 0 10 C0 8.35 0 6.7 0 5 C-0.66 5 -1.32 5 -2 5 C-1.34 3.35 -0.68 1.7 0 0 Z " fill="#D69278" transform="translate(429,251)"/>
<path d="M0 0 C2.04296875 0.4609375 2.04296875 0.4609375 4.1875 1.375 C4.90292969 1.67148438 5.61835938 1.96796875 6.35546875 2.2734375 C7.16951172 2.63308594 7.16951172 2.63308594 8 3 C3.84228506 4.31538327 1.1120703 3.34433068 -3 2 C-2.01 1.34 -1.02 0.68 0 0 Z " fill="#D59883" transform="translate(506,236)"/>
<path d="M0 0 C2.475 0.495 2.475 0.495 5 1 C5 1.66 5 2.32 5 3 C6.32 3.33 7.64 3.66 9 4 C6.69 4 4.38 4 2 4 C1.34 2.68 0.68 1.36 0 0 Z " fill="#E37655" transform="translate(460,215)"/>
<path d="M0 0 C-0.66 0 -1.32 0 -2 0 C-2 0.66 -2 1.32 -2 2 C-3.32 2.33 -4.64 2.66 -6 3 C-6 2.34 -6 1.68 -6 1 C-6.99 0.67 -7.98 0.34 -9 0 C-5.62182575 -0.84454356 -3.32534757 -1.10844919 0 0 Z " fill="#E4714B" transform="translate(332,201)"/>
<path d="M0 0 C1.5625 1.1875 1.5625 1.1875 3 3 C2.6875 5.6875 2.6875 5.6875 2 8 C1.34 8 0.68 8 0 8 C-0.79953138 4.71303767 -1.09658936 3.28976808 0 0 Z " fill="#EDEDED" transform="translate(617,55)"/>
<path d="M0 0 C1.5625 1.1875 1.5625 1.1875 3 3 C2.6875 5.6875 2.6875 5.6875 2 8 C1.34 8 0.68 8 0 8 C-0.79953138 4.71303767 -1.09658936 3.28976808 0 0 Z " fill="#EDEDED" transform="translate(297,55)"/>
</svg>
